<?xml version="1.0" encoding="utf-8"?>
<!-- Generator: Adobe Illustrator 16.0.0, SVG Export Plug-In . SVG Version: 6.00 Build 0)  -->
<!DOCTYPE svg PUBLIC "-//W3C//DTD SVG 1.1//EN" "http://www.w3.org/Graphics/SVG/1.1/DTD/svg11.dtd">
<svg version="1.1" id="Layer_1" xmlns="http://www.w3.org/2000/svg" xmlns:xlink="http://www.w3.org/1999/xlink" x="0px" y="0px"
	 width="300px" height="72px" viewBox="0 215.5 300 72" enable-background="new 0 215.5 300 72" xml:space="preserve">
<g>
	<g>
		<path fill="#008FCD" d="M164.373,240.257c-4.534-0.482-8.393,0.868-11.672,4.919v-24.598l-11.865,1.447v56.914h11.865v-3.377
			c1.64,1.158,3.183,2.604,5.016,3.184c6.945,2.508,16.109,0.482,19.293-8.971c2.025-6.078,2.025-12.252,0.482-18.328
			C175.756,244.791,171.319,241.029,164.373,240.257z M166.205,264.951c-0.481,3.763-3.473,5.691-6.945,5.402
			c-0.868-0.096-1.64-0.289-2.411-0.578c-2.798-1.641-3.666-4.342-3.955-6.078l0,0c-0.192-2.701-0.386-8.295,0.868-10.9
			c1.062-2.025,2.99-3.086,5.498-3.183c3.569-0.097,6.271,1.64,6.85,5.401C166.592,258.199,166.688,261.672,166.205,264.951z
			 M206.624,240.933c-4.148-1.158-8.296-1.061-12.444,0c-6.174,1.64-10.321,5.595-11.672,11.962
			c-0.771,3.473-0.868,7.138-0.675,10.61c0.481,8.103,5.401,13.794,13.022,15.627c0.096,0,0.192,0,0.289,0.097l0,0c0,0,0,0,0.097,0
			c0.289,0.096,0.578,0.096,0.868,0.193c0.096,0,0.192,0,0.289,0l0,0c0.386,0.096,0.771,0.096,1.254,0.192
			c1.544,0.192,3.376,0.289,5.017,0.097l0,0c0.096,0,0.192,0,0.289,0c7.91-0.387,13.891-5.498,15.627-13.216
			c0.965-4.244,0.965-8.489,0-12.733C217.138,247.01,213.087,242.765,206.624,240.933z M207.106,264.276
			c0,0.29-0.096,0.482-0.096,0.772c-0.772,3.568-3.377,5.498-6.753,5.305c-3.665-0.193-6.174-2.314-6.56-6.077
			c-0.289-2.7-0.289-5.498-0.097-8.199c0.387-4.244,2.991-6.656,6.945-6.56c3.28,0.097,5.596,1.93,6.367,5.113
			C207.685,257.91,207.202,263.602,207.106,264.276z M19.389,240.74v-5.691c0.579-5.402,9.453-4.341,9.453-4.341v-0.386l0,0v-8.971
			l0,0l0,0l0,0c-0.289-0.097-17.556-4.245-20.932,9.067l0,0v0.097c-0.579,1.64-0.579,9.26-0.579,10.225H0v10.225h7.813v27.685
			h11.383v-27.685h8.682l0.964-10.225H19.389L19.389,240.74z M55.08,245.659L55.08,245.659c-0.097-0.193-0.289-0.29-0.386-0.482l0,0
			c0,0,0,0-0.097-0.096c-0.192-0.193-0.289-0.29-0.289-0.29c-2.701-2.797-3.666-3.473-5.788-4.051
			c-8.103-2.412-15.916,1.833-18.424,10.128c-1.544,5.017-1.544,10.321-0.676,15.435c2.025,11.093,10.129,14.855,18.811,13.021
			c2.701-0.578,4.63-2.219,6.463-4.63c0,0,0.193-0.192,0.386-0.579v4.92h11.094v-38.199H55.08V245.659z M54.115,264.855
			c-0.386,3.568-3.183,5.691-6.56,5.498c-3.376-0.096-5.691-2.025-6.366-5.305c-0.868-4.727,0.193-10.322,0.193-10.805
			c0.868-3.184,3.183-4.727,6.463-4.63c3.279,0.096,5.787,2.025,6.174,5.498C54.406,258.296,54.406,261.672,54.115,264.855z
			 M100.128,276.238c-0.481-1.93-1.061-3.762-1.64-5.596l-0.578-2.025c0,0-13.891,6.752-16.109-6.077
			c-0.193-2.122-0.097-4.341,0.192-6.463c0.579-3.955,2.895-6.077,6.753-6.463c1.254-0.097,2.604-0.097,3.858,0.193
			c1.736,0.29,3.376,0.869,5.306,1.253c0.675-2.025,1.35-4.051,1.929-6.077c0.097-0.29,0.193-0.579,0.289-0.868l0,0l0.29-1.254
			c-0.097-0.193-0.29-0.29-0.482-0.482l0,0c-0.289-0.29-0.868-0.482-1.736-0.771c-0.386-0.097-0.676-0.193-1.062-0.386
			c-0.289-0.096-0.482-0.193-0.482-0.193l0,0c-3.665-1.061-7.427-1.157-11.189-0.771c-8.006,0.868-13.505,5.691-15.048,13.601
			c-0.771,4.147-0.771,8.393,0.192,12.637c1.351,6.271,5.113,10.321,11.19,12.154c3.955,1.157,8.103,1.254,12.154,0.579
			c1.736-0.289,4.147-1.158,5.884-1.833l0.676-0.192L100.128,276.238L100.128,276.238z M136.784,261.286
			c-0.097-2.604,0-5.306-0.386-7.91c-1.062-7.138-5.306-11.672-12.251-12.829c-2.604-0.482-5.401-0.386-8.103-0.097
			c-7.331,0.675-12.926,5.306-14.084,12.347c-0.675,4.245-0.771,8.682-0.192,12.927c0.868,6.366,3.955,10.418,9.26,12.443l0,0h0.097
			l0,0c2.412,0.772,14.276,3.858,24.791-1.446l-0.386-1.544l0,0c-0.482-2.122-1.062-4.147-1.64-6.173l-0.097-0.193
			c0,0-0.193,0.096-0.579,0.193l0,0c-0.482,0.096-0.868,0.289-1.351,0.385c-0.096,0-0.192,0.097-0.289,0.097
			c-1.543,0.482-3.858,0.965-6.27,1.351c-2.026,0.193-4.052,0.193-6.077,0c-3.28-0.578-5.885-2.314-5.788-6.656h21.415
			c0.192,0,0.289,0,0.481,0l0,0c0,0,1.351,0,1.447,0v-0.385V261.286z M126.077,256.077h-12.83c0.097-2.604,0.386-5.017,2.701-6.463
			c2.412-1.543,5.112-1.64,7.524-0.193C125.884,250.868,126.077,253.376,126.077,256.077z M299.035,241.222h-12.637l-10.997,17.364
			v-38.007l-11.864,1.447v56.914h11.864v-17.363l10.997,17.459h12.637l-11.865-18.906L299.035,241.222z M247.138,240.933
			c-4.147-1.158-8.296-1.158-12.443,0c-6.174,1.64-10.321,5.595-11.672,11.962c-0.771,3.473-0.868,7.138-0.676,10.61
			c0.482,8.103,5.402,13.794,13.022,15.627c0.097,0,0.193,0,0.29,0.097l0,0c0,0,0,0,0.097,0c0.289,0.096,0.578,0.096,0.868,0.193
			c0.096,0,0.192,0,0.289,0l0,0c0.386,0.096,0.771,0.096,1.254,0.192c1.543,0.192,3.376,0.289,5.016,0.097l0,0
			c0.097,0,0.193,0,0.29,0c7.91-0.387,13.891-5.498,15.627-13.216c0.965-4.244,0.965-8.489,0-12.733
			C257.749,247.01,253.698,242.765,247.138,240.933z M247.717,264.276c0,0.29-0.097,0.482-0.097,0.772
			c-0.771,3.568-3.376,5.498-6.752,5.305c-3.666-0.193-6.174-2.314-6.56-6.077c-0.29-2.7-0.29-5.498-0.097-8.199
			c0.386-4.244,2.99-6.656,6.945-6.56c3.28,0.097,5.595,1.93,6.366,5.113C248.296,257.91,247.717,263.602,247.717,264.276z"/>
	</g>
</g>
</svg>
