<?xml version="1.0" encoding="utf-8"?>
<!-- Generator: Adobe Illustrator 18.0.0, SVG Export Plug-In . SVG Version: 6.00 Build 0)  -->
<!DOCTYPE svg PUBLIC "-//W3C//DTD SVG 1.1//EN" "http://www.w3.org/Graphics/SVG/1.1/DTD/svg11.dtd">
<svg version="1.1" id="圖層_1" xmlns="http://www.w3.org/2000/svg" xmlns:xlink="http://www.w3.org/1999/xlink" x="0px" y="0px"
	 viewBox="0 0 120 120" enable-background="new 0 0 120 120" xml:space="preserve">
<rect fill="none" width="120" height="120"/>
<g>
	<g>
		<g>
			<path fill="#FFFFFF" d="M102.5,56.4c0-19.1-19.1-34.5-42.5-34.5S17.5,37.3,17.5,56.4c0,17.1,15.1,31.4,35.5,34
				c1.3,0.4,3.2,0.9,3.8,2.2c0.4,1.1,0.3,2.7,0.2,3.9c0,0-0.5,2.9-0.6,3.7c-0.2,1.1-0.8,4.2,3.7,2.3c4.5-1.9,24.5-14.5,33.4-24.6
				l0,0C99.5,70.8,102.5,64,102.5,56.4z M43.4,67.7H35c-1.2,0-2.2-1-2.2-2.2v-17c0-1.2,1-2.2,2.2-2.2c1.2,0,2.2,1,2.2,2.2v14.6h6.2
				c1.2,0,2.2,1,2.2,2.2C45.5,66.7,44.5,67.7,43.4,67.7z M52.1,65.4c0,1.2-1,2.2-2.2,2.2c-1.2,0.1-2.2-0.9-2.2-2.2V48.5
				c0-1.2,1-2.2,2.2-2.2c1.2,0,2.2,1,2.2,2.2V65.4z M72.4,65.4c0,0.9-0.6,1.8-1.5,2.2c-0.3,0.1-0.5,0.1-0.7,0.1
				c-0.7,0-1.3-0.4-1.8-0.8L59.7,55v10.5c0,1.2-1,2.2-2.2,2.2c-1.2,0-2.2-1-2.2-2.2v-17c0-0.9,0.6-1.8,1.5-2.2
				c0.3-0.1,0.5-0.1,0.7-0.1c0.7,0,1.3,0.4,1.8,0.9L68,58.9V48.5c0-1.2,1-2.2,2.2-2.2c1.2,0,2.2,1,2.2,2.2
				C72.4,48.5,72.4,65.4,72.4,65.4z M86,54.8c1.2,0,2.2,1,2.2,2.2c0,1.2-1,2.2-2.2,2.2h-6.1v4h6.2c1.2,0,2.2,1,2.2,2.2
				s-1,2.2-2.2,2.2h-8.4c-1.2,0-2.2-1-2.2-2.2v-8.4l0,0v-8.4c0-1.2,1-2.2,2.2-2.2h8.4c1.2,0,2.2,1,2.2,2.2c0,1.2-1,2.2-2.2,2.2h-6.2
				v4C79.8,54.8,86,54.8,86,54.8z"/>
		</g>
	</g>
</g>
</svg>
