<?xml version="1.0" encoding="utf-8"?>
<!-- Generator: Adobe Illustrator 16.0.0, SVG Export Plug-In . SVG Version: 6.00 Build 0)  -->
<!DOCTYPE svg PUBLIC "-//W3C//DTD SVG 1.1//EN" "http://www.w3.org/Graphics/SVG/1.1/DTD/svg11.dtd">
<svg version="1.1" id="Layer_1" xmlns="http://www.w3.org/2000/svg" xmlns:xlink="http://www.w3.org/1999/xlink" x="0px" y="0px"
	 width="300px" height="300px" viewBox="0 100 300 300" enable-background="new 0 100 300 300" xml:space="preserve">
<path display="none" fill="#5BB8E4" d="M392.137,401.05c8.513,0,16.463-11.399,21.488-18.3
	c31.875-43.8,88.688-127.95,88.688-171.788C502.313,149.65,452.925,100,392.137,100c-60.787,0-110.175,49.65-110.175,110.962
	c0,43.8,56.813,127.95,88.688,172.05C375.675,389.65,383.625,401.05,392.137,401.05L392.137,401.05z M392.137,144.063
	c32.4,0,58.688,26.288,58.688,58.95c0,32.4-26.287,58.95-58.688,58.95c-32.399,0-58.688-26.288-58.688-58.95
	C333.449,202.75,334.238,144.063,392.137,144.063z"/>
<path display="none" fill="#FFFFFF" d="M326.025,199.038h30.525v-14.063v-13.8v-2.137c0-13.275,0.263-33.712,9.825-46.462
	C376.462,109.038,390.262,100,413.887,100c38.775,0,54.938,5.587,54.938,5.587l-7.688,45.938c0,0-12.75-3.712-24.675-3.712
	s-22.575,4.237-22.575,16.462v4.763v15.938v14.063h49.125l-3.449,44.85H414.15v155.587h-57.6v-155.85h-30.525V199.038
	L326.025,199.038z"/>
<path fill="#008FCD" d="M32.328,343.764l80.765-92.361l30.254,25.794c1.858,1.562,3.94,2.379,6.058,2.379
	c2.119,0,4.201-0.781,6.06-2.379l30.254-25.794l80.765,92.361c-1.561,0.521-3.419,1.041-5.277,1.041H37.568
	C35.746,344.805,34.148,344.284,32.328,343.764 M19.17,326.109V177.179c0-1.858,0.521-3.68,1.041-5.539l78.943,67.608l-79.204,90.54
	C19.691,328.748,19.17,327.447,19.17,326.109 M199.916,239.285l78.944-67.607c0.52,1.858,1.04,3.419,1.04,5.538v148.931
	c0,1.301-0.521,2.379-0.781,3.68L199.916,239.285z M34.148,159.301c1.041-0.26,2.379-0.78,3.42-0.78h223.674
	c1.301,0,2.379,0.52,3.42,0.78l-115.258,98.94L34.148,159.301z M37.828,140.085c-20.777,0-37.354,16.577-37.354,37.094v148.931
	c0,20.776,16.576,37.354,37.354,37.354h223.675c20.517,0,37.354-16.577,37.354-37.354V177.179c0-20.517-16.578-37.354-37.354-37.354
	L37.828,140.085L37.828,140.085z"/>
</svg>
