<?xml version="1.0" encoding="utf-8"?>
<!-- Generator: Adobe Illustrator 16.0.0, SVG Export Plug-In . SVG Version: 6.00 Build 0)  -->
<!DOCTYPE svg PUBLIC "-//W3C//DTD SVG 1.1//EN" "http://www.w3.org/Graphics/SVG/1.1/DTD/svg11.dtd">
<svg version="1.1" id="Layer_1" xmlns="http://www.w3.org/2000/svg" xmlns:xlink="http://www.w3.org/1999/xlink" x="0px" y="0px"
	 width="300px" height="300px" viewBox="0 0 300 300" enable-background="new 0 0 300 300" xml:space="preserve">
<path display="none" fill="#5BB8E4" d="M392.137,401.05c8.513,0,16.463-11.399,21.488-18.3
	c31.875-43.8,88.688-127.95,88.688-171.788C502.313,149.65,452.925,100,392.137,100c-60.787,0-110.175,49.65-110.175,110.962
	c0,43.8,56.813,127.95,88.688,172.05C375.675,389.65,383.625,401.05,392.137,401.05L392.137,401.05z M392.137,144.063
	c32.4,0,58.688,26.288,58.688,58.95c0,32.4-26.287,58.95-58.688,58.95c-32.399,0-58.688-26.288-58.688-58.95
	C333.449,202.75,334.238,144.063,392.137,144.063z"/>
<path display="none" fill="#FFFFFF" d="M326.025,199.038h30.525v-14.063v-13.8v-2.137c0-13.275,0.263-33.712,9.825-46.462
	C376.462,109.038,390.262,100,413.887,100c38.775,0,54.938,5.587,54.938,5.587l-7.688,45.938c0,0-12.75-3.712-24.675-3.712
	s-22.575,4.237-22.575,16.462v4.763v15.938v14.063h49.125l-3.449,44.85H414.15v155.587h-57.6v-155.85h-30.525V199.038
	L326.025,199.038z"/>
<rect x="0" display="none" fill="#918383" width="300" height="300"/>
<path fill="#FFFFFF" d="M39.891,235.288l75.79-89.721l28.391,25.057c1.743,1.517,3.697,2.311,5.685,2.311s3.942-0.759,5.686-2.311
	l28.391-25.057l75.789,89.721c-1.464,0.505-3.209,1.01-4.952,1.01H44.808C43.099,236.298,41.599,235.793,39.891,235.288
	 M27.544,218.138V73.466c0-1.805,0.489-3.575,0.976-5.38l74.081,65.675l-74.325,87.951
	C28.032,220.701,27.544,219.438,27.544,218.138 M197.155,133.797l74.081-65.674c0.487,1.805,0.978,3.322,0.978,5.379v144.672
	c0,1.264-0.49,2.311-0.734,3.575L197.155,133.797z M41.599,56.1c0.976-0.253,2.232-0.758,3.209-0.758h209.895
	c1.221,0,2.232,0.505,3.209,0.758l-108.157,96.11L41.599,56.1z M45.052,37.434C25.555,37.434,10,53.537,10,73.466v144.672
	c0,20.182,15.555,36.285,35.052,36.285h209.896c19.253,0,35.052-16.103,35.052-36.285V73.466c0-19.93-15.556-36.285-35.052-36.285
	L45.052,37.434L45.052,37.434z"/>
</svg>
