<?xml version="1.0" encoding="utf-8"?>
<!-- Generator: Adobe Illustrator 18.0.0, SVG Export Plug-In . SVG Version: 6.00 Build 0)  -->
<!DOCTYPE svg PUBLIC "-//W3C//DTD SVG 1.1//EN" "http://www.w3.org/Graphics/SVG/1.1/DTD/svg11.dtd">
<svg version="1.1" id="Layer_1" xmlns="http://www.w3.org/2000/svg" xmlns:xlink="http://www.w3.org/1999/xlink" x="0px" y="0px"
	 viewBox="480 0 800 800" enable-background="new 480 0 800 800" xml:space="preserve">
<path display="none" fill="#5BB8E4" d="M885.7,802.8c22.7,0,43.9-30.4,57.3-48.8c85-116.8,236.5-341.2,236.5-458.1
	C1179.5,132.4,1047.8,0,885.7,0S591.9,132.4,591.9,295.9c0,116.8,151.5,341.2,236.5,458.8C841.8,772.4,863,802.8,885.7,802.8
	L885.7,802.8z M885.7,117.5c86.4,0,156.5,70.1,156.5,157.2c0,86.4-70.1,157.2-156.5,157.2s-156.5-70.1-156.5-157.2
	C729.2,274,731.3,117.5,885.7,117.5z"/>
<path display="none" fill="#FFFFFF" d="M709.4,264.1h81.4v-37.5v-36.8v-5.7c0-35.4,0.7-89.9,26.2-123.9C843.9,24.1,880.7,0,943.7,0
	c103.4,0,146.5,14.9,146.5,14.9l-20.5,122.5c0,0-34-9.9-65.8-9.9s-60.2,11.3-60.2,43.9v12.7v42.5v37.5h131l-9.2,119.6H944.4v414.9
	H790.8V383h-81.4L709.4,264.1L709.4,264.1z"/>
<path fill="#008FCD" d="M1033.9,419.3c-20.1-19.3-48.3-32.8-84.7-40.1c-6.7-1.5-14.2-2.9-22.3-5.3c-8.1-2.3-16.4-3.7-23.8-5.3V211.2
	c32.8,2.2,58.7,7.5,78.8,16.4s38.6,18.6,57.2,29.7h5.3v-72.1c-17.8-7.5-39.4-13.3-65.4-18.6s-51.2-8.2-75.8-8.9V59.6H860v99.6
	c-51.2,4.4-90.7,18.6-119,43.9c-28.2,24.6-42.4,55.8-42.4,91.5c0,29.7,8.9,54.3,26,74.3c17.1,20.1,46.1,35,85.5,45.4
	c7.5,2.2,14.9,3.7,23,6c8.2,1.5,17.1,3.7,26.8,6v158.3c-19.3-0.7-37.2-2.9-54.3-7.5c-17.1-3.7-31.9-8.2-44.6-12.6
	c-11.1-4.4-23-9.7-35-15.6c-11.9-6.7-20.1-11.1-24.6-14.9h-6v72.9c20.8,9.7,45.4,17.1,73.6,23c28.2,6,58.7,8.9,90.7,9.7v130.8h43.2
	v-134c47.6-4.4,86.2-19.3,115.9-44.6c29.7-25.3,44.6-56.5,44.6-94.4C1063.7,464.7,1054,438.6,1033.9,419.3z M787.8,334.6
	c-13.3-11.1-20.1-28.2-20.1-49.8c0-22.3,8.9-39.4,26.8-51.2c17.8-12.6,40.1-19.3,66.1-21.5V363C825,355.4,800.4,345.7,787.8,334.6z
	 M971.5,560.5c-15.6,12-37.9,19.3-67.6,22.4V431.2c31.9,6,55.8,14.2,69.8,25.3c14.2,10.4,21.5,27.5,21.5,50.5
	C994.5,530.8,987,548.7,971.5,560.5z"/>
</svg>
