<?xml version="1.0" encoding="utf-8"?>
<!-- Generator: Adobe Illustrator 18.0.0, SVG Export Plug-In . SVG Version: 6.00 Build 0)  -->
<!DOCTYPE svg PUBLIC "-//W3C//DTD SVG 1.1//EN" "http://www.w3.org/Graphics/SVG/1.1/DTD/svg11.dtd">
<svg version="1.1" id="Layer_1" xmlns="http://www.w3.org/2000/svg" xmlns:xlink="http://www.w3.org/1999/xlink" x="0px" y="0px"
	 viewBox="480 0 800 800" enable-background="new 480 0 800 800" xml:space="preserve">
<path display="none" fill="#5BB8E4" d="M885.7,802.8c22.7,0,43.9-30.4,57.3-48.8c85-116.8,236.5-341.2,236.5-458.1
	C1179.5,132.4,1047.8,0,885.7,0S591.9,132.4,591.9,295.9c0,116.8,151.5,341.2,236.5,458.8C841.8,772.4,863,802.8,885.7,802.8
	L885.7,802.8z M885.7,117.5c86.4,0,156.5,70.1,156.5,157.2c0,86.4-70.1,157.2-156.5,157.2s-156.5-70.1-156.5-157.2
	C729.2,274,731.3,117.5,885.7,117.5z"/>
<path display="none" fill="#FFFFFF" d="M709.4,264.1h81.4v-37.5v-36.8v-5.7c0-35.4,0.7-89.9,26.2-123.9C843.9,24.1,880.7,0,943.7,0
	c103.4,0,146.5,14.9,146.5,14.9l-20.5,122.5c0,0-34-9.9-65.8-9.9s-60.2,11.3-60.2,43.9v12.7v42.5v37.5h131l-9.2,119.6H944.4v414.9
	H790.8V383h-81.4L709.4,264.1L709.4,264.1z"/>
<path fill="#FFFFFF" d="M1177.9,169.8c-87.4-28.9-220.3,68.9-270.8,109.7c-7.2-3.3-29.6-4.8-40.8,0
	c-50.5-40.8-183.4-138.6-270.8-109.7c-81,28-92.9,81.7-92.9,149s12,121,93.8,148.3c71.2,24,172.9-36.9,235.4-82.5
	c-39.3,51.2-83.4,119.4-77,165.1c8.8,58.5-58.5,125-76.1,138.6c48.1,0,91.3,0,91.3,0s64-84.1,54.5-136.2
	c-8.8-48.1,29.6-148.3,52.1-191.5c6.4,0.8,15.2,1.6,22.5,0c21.6,43.3,60.9,143.4,52.1,191.5c-9.6,52.1,54.5,136.2,54.5,136.2
	s43.3,0,91.3,0c-19.2-13.7-85.7-80.1-77.7-139.4c6.4-45.7-37.7-113.8-77-165.1c62.5,45.7,164.2,106.6,235.5,82.5
	c81.7-28,93.8-81,93.8-148.3C1271.6,251.5,1259.6,197.8,1177.9,169.8z M593.8,403.7c-52.9-20.1-76.1-57.6-76.1-84.9
	c0-28,23.2-64.9,76.1-84.9c38.4-14.4,181.9,40.1,253.2,68.9c-3.3,9.7-1.6,27.2,0,32.9C776.5,363.7,632.3,418.2,593.8,403.7z
	 M1180.4,403.7c-38.4,14.4-181.9-40.1-253.2-68.9c0-0.8,4-19.2,0-32.9c70.5-28.9,214.7-82.5,253.2-68.9
	c52.9,20.1,76.1,57.6,76.1,84.9C1256.4,346.1,1232.4,383.7,1180.4,403.7z"/>
</svg>
