<?xml version="1.0" encoding="utf-8"?>
<!-- Generator: Adobe Illustrator 18.0.0, SVG Export Plug-In . SVG Version: 6.00 Build 0)  -->
<!DOCTYPE svg PUBLIC "-//W3C//DTD SVG 1.1//EN" "http://www.w3.org/Graphics/SVG/1.1/DTD/svg11.dtd">
<svg version="1.1" id="Layer_1" xmlns="http://www.w3.org/2000/svg" xmlns:xlink="http://www.w3.org/1999/xlink" x="0px" y="0px"
	 viewBox="480 0 800 800" enable-background="new 480 0 800 800" xml:space="preserve">
<path display="none" fill="#5BB8E4" d="M885.7,802.8c22.7,0,43.9-30.4,57.3-48.8c85-116.8,236.5-341.2,236.5-458.1
	C1179.5,132.4,1047.8,0,885.7,0S591.9,132.4,591.9,295.9c0,116.8,151.5,341.2,236.5,458.8C841.8,772.4,863,802.8,885.7,802.8
	L885.7,802.8z M885.7,117.5c86.4,0,156.5,70.1,156.5,157.2c0,86.4-70.1,157.2-156.5,157.2s-156.5-70.1-156.5-157.2
	C729.2,274,731.3,117.5,885.7,117.5z"/>
<path display="none" fill="#FFFFFF" d="M709.4,264.1h81.4v-37.5v-36.8v-5.7c0-35.4,0.7-89.9,26.2-123.9C843.9,24.1,880.7,0,943.7,0
	c103.4,0,146.5,14.9,146.5,14.9l-20.5,122.5c0,0-34-9.9-65.8-9.9s-60.2,11.3-60.2,43.9v12.7v42.5v37.5h131l-9.2,119.6H944.4v414.9
	H790.8V383h-81.4L709.4,264.1L709.4,264.1z"/>
<path fill="#FFFFFF" d="M1100.1,46.5H659.9l61,536.8v186.6h317.4V583.2L1100.1,46.5z M1059.1,82.9l-55.8,490.7H756.6L700.9,82.9
	H1059.1L1059.1,82.9z M1002.6,733.4H757.4V610.7h245.3L1002.6,733.4L1002.6,733.4z"/>
</svg>
