<?xml version="1.0" encoding="utf-8"?>
<!-- Generator: Adobe Illustrator 18.0.0, SVG Export Plug-In . SVG Version: 6.00 Build 0)  -->
<!DOCTYPE svg PUBLIC "-//W3C//DTD SVG 1.1//EN" "http://www.w3.org/Graphics/SVG/1.1/DTD/svg11.dtd">
<svg version="1.1" id="圖層_1" xmlns="http://www.w3.org/2000/svg" xmlns:xlink="http://www.w3.org/1999/xlink" x="0px" y="0px"
	 viewBox="0 0 612 792" enable-background="new 0 0 612 792" xml:space="preserve">
<path display="none" fill="#5BB8E4" d="M310.3,702c17.3,0,33.5-23.2,43.7-37.2c64.8-89,180.3-260.1,180.3-349.2
	c0-124.7-100.4-225.6-224-225.6s-224,100.9-224,225.6c0,89,115.5,260.1,180.3,349.7C276.9,678.8,293,702,310.3,702L310.3,702z
	 M310.3,179.6c65.8,0,119.3,53.4,119.3,119.8c0,65.8-53.4,119.8-119.3,119.8S191,365.8,191,299.4C191,298.9,193.2,179.6,310.3,179.6
	z"/>
<path display="none" fill="#FFFFFF" d="M175.9,291.3H238v-28.6v-28.1v-4.9c0-27,0.5-68.5,20-94.4c20.5-27.5,48.6-45.9,96.6-45.9
	c78.3,0,111.7,11.3,111.7,11.3l-15.7,93.4c0,0-25.9-7.6-50.2-7.6c-24.3,0-45.9,8.6-45.9,33.5v9.7v32.4v28.6h99.3l-7,91.2h-91.7
	v316.3H238.5V382h-62.6V291.3L175.9,291.3z"/>
<path display="none" fill="#FFFFFF" d="M66.9,589.2l165.1-189.4l62.1,52.9c3.8,3.2,8.1,4.9,12.4,4.9s8.6-1.6,12.4-4.9l62.1-52.9
	l165.7,189.4c-3.2,1.1-7,2.2-10.8,2.2H77.2C73.9,591.4,70.2,590.3,66.9,589.2 M39.4,553V247.6c0-3.8,1.1-7.6,2.2-11.3L203.5,375
	L41,560.6C40.5,558.4,39.4,555.7,39.4,553 M410.2,375l161.9-138.7c1.1,3.8,2.2,7,2.2,11.3V553c0,2.7-1.1,4.9-1.6,7.6L410.2,375z
	 M70.2,210.9c2.2-0.5,4.9-1.6,7-1.6h458.7c2.7,0,4.9,1.1,7,1.6L307.1,413.8L70.2,210.9z M77.7,171.5c-42.1,0-76.6,34-76.6,76.6
	v305.5c0,42.1,34,76.6,76.6,76.6h458.7c42.1,0,76.6-34,76.6-76.6v-306c0-42.1-34-76.6-76.6-76.6H77.7V171.5z"/>
<path fill="#C4C4C4" d="M5.9,276.7c1.1,4.9,2.7,11.3,5.4,19.4c2.7,8.1,4.9,14,5.9,17.8c1.6,3.8,3.8,10.3,7.6,19.4
	c3.8,9.7,5.9,15.7,6.5,17.8c23.7,65.3,66.9,129,129,191c62.1,62.1,126.3,105.2,191,129c2.2,0.5,8.1,3.2,17.8,6.5
	c9.7,3.8,16.2,5.9,19.4,7.6c3.8,1.6,9.7,3.2,17.8,5.9c8.1,2.7,14.6,4.3,20,5.4c4.9,1.1,10.8,2.2,18.3,2.7c7,1.1,14,1.6,20.5,1.6
	c22.7,0,48.6-7,77.7-20.5c29.1-13.5,48-29.7,56.7-47.5c8.6-21,13-41,13-60.4c0-4.3-0.5-7.6-1.1-9.7c-1.1-3.2-8.6-9.2-23.2-17.8
	c-14-8.6-31.8-18.3-52.9-29.7L503.5,498c-2.2-1.1-5.9-3.8-11.3-7.6c-5.4-3.8-10.8-7-15.1-9.2c-4.3-2.2-8.6-2.7-12.4-2.7
	c-7,0-16.7,6.5-28.1,19.4c-11.3,13-22.7,25.9-34,38.9c-11.3,13-20,20-26.4,20c-2.7,0-5.9-0.5-9.7-2.2c-3.8-1.6-7-2.7-9.2-3.8
	c-2.2-1.1-5.9-3.2-10.3-5.9c-4.3-2.7-7-4.3-8.6-4.9c-39.4-22.1-73.4-47-101.5-75.6c-28.6-28.6-53.4-62.6-75.6-102
	c-0.5-1.1-2.7-3.8-4.9-8.1c-2.7-4.3-4.3-7.6-5.4-10.3c-1.1-2.2-2.7-5.4-3.8-9.2c-1.6-3.8-2.2-7-2.2-9.7c0-5.4,4.3-11.9,12.4-20
	c8.1-8.1,17.3-15.7,27-23.2c9.7-7,18.9-15.1,27-23.7c8.1-8.6,12.4-15.7,12.4-21.6c0-3.8-1.1-8.1-3.2-12.4c-2.2-4.3-4.9-9.2-9.2-15.1
	c-3.8-5.4-6.5-9.2-7.6-11.3c-1.1-2.2-4.3-8.1-9.2-16.7c-4.9-9.2-9.7-17.8-15.1-27c-5.4-9.2-10.3-18.3-15.7-28.6
	c-5.4-9.7-10.3-17.8-15.1-24.3c-4.3-6.5-7.6-9.7-9.7-10.8c-2.2-0.5-5.4-1.1-9.7-1.1c-18.9,0-39.4,4.3-60.4,13
	c-17.8,9.7-34,28.6-47.5,57.7s-20.5,55-20.5,77.7c0,6.5,0.5,13,1.6,20.5C3.8,265.9,4.9,271.9,5.9,276.7z"/>
<g display="none">
	<path display="inline" fill="#FFFFFF" d="M558,400.3c-6.5-27.5-28.6-47.5-55.6-50.7c-64.2-7-129-7-193.2-7s-129.5,0-193.2,7
		c-27,3.2-49.7,23.2-55.6,50.7c-9.2,38.9-9.2,81.5-9.2,122s0,83.1,9.2,122C66.9,671.8,89,691.7,116,695c64.2,7,129,7,193.2,7
		s129.5,0,193.2-7c27-3.2,49.7-23.2,55.6-50.7c9.2-38.9,9.2-81.5,9.2-122C567.2,482.3,567.2,439.2,558,400.3L558,400.3z
		 M198.1,430.5h-37.2v198.6h-34.5V430.5H89.6v-32.4h108.5L198.1,430.5L198.1,430.5z M292.5,629.1h-31.3v-18.9
		c-12.4,14-24.3,21-35.6,21c-10.3,0-16.7-4.3-20-13c-1.6-5.4-2.7-13.5-2.7-25.4V457h31.3v126.8c0,7.6,0,11.3,0,11.9
		c0.5,4.9,3.2,7.6,7.6,7.6c6.5,0,13-4.9,20-14.6V457H293v172.2H292.5z M410.7,577.3c0,15.7-1.1,27.5-3.2,34.5
		c-4.3,13-12.4,19.4-24.8,19.4c-11.3,0-21.6-5.9-32.4-18.9v16.7H319v-231h31.8v75.6c10.3-12.4,20.5-18.9,32.4-18.9
		c12.4,0,20.5,6.5,24.8,19.4c2.2,7,3.2,18.3,3.2,34.5v68.5H410.7z M528.3,548.7h-62.1v30.8c0,15.7,5.4,23.7,16.2,23.7
		c7.6,0,12.4-4.3,14-12.4c0-1.6,0.5-8.6,0.5-21h31.8v4.3c0,10.3-0.5,16.7-0.5,20c-1.1,7-3.2,13-7,18.9
		c-8.6,12.4-21.6,18.9-37.8,18.9c-16.2,0-28.6-5.9-37.8-17.8c-6.5-8.6-10.3-22.1-10.3-40.5v-60.4c0-18.3,3.2-31.8,9.7-40.5
		c9.2-11.9,21.6-17.8,37.2-17.8c15.7,0,28.1,5.9,36.7,17.8c6.5,8.6,9.7,22.1,9.7,40.5L528.3,548.7L528.3,548.7z"/>
	<path display="inline" fill="#FFFFFF" d="M481.9,482.9c-10.3,0-15.7,8.1-15.7,23.7v16.2h31.3v-16.2
		C497.6,491,492.2,482.9,481.9,482.9L481.9,482.9z"/>
	<path display="inline" fill="#FFFFFF" d="M366.4,482.9c-5.4,0-10.3,2.7-15.7,7.6v104.7c5.4,5.4,10.3,7.6,15.7,7.6
		c9.2,0,13.5-7.6,13.5-23.2v-72.9C379.9,491,375.1,482.9,366.4,482.9L366.4,482.9z"/>
	<path display="inline" fill="#FFFFFF" d="M383.7,326.4c11.3,0,23.2-7,36.2-21.6v18.9h31.3V150.4h-31.3v132.8
		c-7,9.7-13.5,14.6-20,14.6c-4.3,0-6.5-2.7-7.6-7.6c-0.5-1.1-0.5-4.9-0.5-12.4V150.4h-31.3v137.6c0,12.4,1.1,20.5,2.7,25.9
		C366.4,322.6,373.5,326.4,383.7,326.4L383.7,326.4z"/>
	<path display="inline" fill="#FFFFFF" d="M164.1,229.8v94.4h35.1v-94.4l42.1-138.7h-35.1l-23.7,91.7l-24.8-91.7h-36.7
		c7.6,21.6,15.1,43.2,22.1,65.3C153.8,188.2,160.8,213,164.1,229.8L164.1,229.8z"/>
	<path display="inline" fill="#FFFFFF" d="M288.2,326.4c15.7,0,28.1-5.9,36.7-17.8c6.5-8.6,9.7-22.7,9.7-41v-60.4
		c0-18.3-3.2-32.4-9.7-41c-8.6-11.9-21-17.8-36.7-17.8c-15.7,0-28.1,5.9-36.7,17.8c-6.5,8.6-9.7,22.1-9.7,41v61
		c0,18.3,3.2,32.4,9.7,41C260.1,321,272.5,326.4,288.2,326.4L288.2,326.4z M273.1,200.6c0-16.2,4.9-24.3,15.1-24.3
		s15.1,8.1,15.1,24.3V274c0,16.2-4.9,24.3-15.1,24.3s-15.1-8.1-15.1-24.3V200.6z"/>
</g>
<g display="none">
	<g display="inline">
		<path fill="#FFFFFF" d="M544,369.6C529.4,260,442.5,173.7,333,159.1V90h-66.4v69.1c-109.6,14.6-195.9,101.5-211,211H0v66.4h55.6
			c14.6,109.6,101.5,195.9,211,211v55.6H333v-55.6c109.6-14.6,195.9-101.5,211-211h69.1v-66.9H544z M300.1,589.2
			c-103.1,0-186.7-83.1-186.7-186.2S197,216.3,300.1,216.3S486.8,299.9,486.8,403C486.3,506.1,402.6,589.2,300.1,589.2z
			 M300.1,296.7c-62.6,0-113.3,50.7-113.3,113.3s50.7,113.3,113.3,113.3S413.4,472.6,413.4,410C412.9,347.4,362.1,296.7,300.1,296.7
			z"/>
	</g>
</g>
</svg>
