<?xml version="1.0" encoding="utf-8"?>
<!-- Generator: Adobe Illustrator 18.0.0, SVG Export Plug-In . SVG Version: 6.00 Build 0)  -->
<!DOCTYPE svg PUBLIC "-//W3C//DTD SVG 1.1//EN" "http://www.w3.org/Graphics/SVG/1.1/DTD/svg11.dtd">
<svg version="1.1" id="圖層_1" xmlns="http://www.w3.org/2000/svg" xmlns:xlink="http://www.w3.org/1999/xlink" x="0px" y="0px"
	 viewBox="0 0 120 120" enable-background="new 0 0 120 120" xml:space="preserve">
<rect fill="none" width="120" height="120"/>
<g>
	<path fill="#FFFFFF" d="M76.2,45.3c1,0,2.1,0.1,3.2,0.2c-2.9-13.2-16.9-22.9-32.8-22.9C28.7,22.6,14,34.8,14,50.4
		c0,8.9,4.9,16.2,13.1,22l-3.2,9.7l11.2-5.7c4.1,0.8,7.4,1.6,11.4,1.6c1,0,2-0.1,3.1-0.1c-0.6-2.2-1-4.4-1-6.8
		C48.6,56.8,60.8,45.3,76.2,45.3z M58.8,36.4c2.5,0,4.1,1.6,4.1,4.1s-1.6,4.1-4.1,4.1s-4.9-1.6-4.9-4.1C54,38,56.4,36.4,58.8,36.4z
		 M36,44.7c-2.5,0-4.9-1.6-4.9-4.1c0-2.5,2.5-4.1,4.9-4.1s4.1,1.6,4.1,4.1C40.2,43,38.4,44.7,36,44.7z"/>
	<path fill="#FFFFFF" d="M106,70.6C106,57.5,92.9,47,78.3,47c-15.4,0-27.7,10.6-27.7,23.6c0.1,13.2,12.3,23.7,27.8,23.7
		c3.3,0,6.5-0.8,9.7-1.6l8.9,4.9l-2.5-8.1C101.1,84.4,106,78,106,70.6z M69.4,66.6c-1.6,0-3.3-1.6-3.3-3.3s1.6-3.3,3.3-3.3
		c2.5,0,4.1,1.6,4.1,3.3C73.4,64.9,71.9,66.6,69.4,66.6z M87.3,66.6c-1.6,0-3.3-1.6-3.3-3.3s1.6-3.3,3.3-3.3c2.5,0,4.1,1.6,4.1,3.3
		C91.4,64.9,89.7,66.6,87.3,66.6z"/>
</g>
</svg>
