<?xml version="1.0" encoding="utf-8"?>
<!-- Generator: Adobe Illustrator 15.0.0, SVG Export Plug-In  -->
<!DOCTYPE svg PUBLIC "-//W3C//DTD SVG 1.1//EN" "http://www.w3.org/Graphics/SVG/1.1/DTD/svg11.dtd" [
	<!ENTITY ns_flows "http://ns.adobe.com/Flows/1.0/">
]>
<svg version="1.1"
	 xmlns="http://www.w3.org/2000/svg" xmlns:xlink="http://www.w3.org/1999/xlink" xmlns:a="http://ns.adobe.com/AdobeSVGViewerExtensions/3.0/"
	 x="0px" y="0px" width="113px" height="113px" viewBox="-0.214 0.003 113 113" enable-background="new -0.214 0.003 113 113"
	 xml:space="preserve">
<defs>
</defs>
<path display="none" fill-rule="evenodd" clip-rule="evenodd" fill="#5BB8E4" d="M57.283,113.44c3.199,0,6.188-4.301,8.073-6.897
	c12.069-16.584,33.422-48.237,33.422-64.778C98.778,18.697,80.202,0,57.283,0S15.788,18.697,15.788,41.765
	c0,16.541,21.351,48.193,33.419,64.778C51.098,109.14,54.1,113.44,57.283,113.44L57.283,113.44z M57.283,16.555
	c12.207,0,22.096,9.928,22.096,22.186c0,12.235-9.889,22.165-22.096,22.165c-12.209,0-22.099-9.929-22.099-22.165
	C35.184,38.74,35.543,16.555,57.283,16.555z"/>
<path display="none" fill="#FFFFFF" d="M32.397,37.288h11.54v-5.291v-5.182v-0.863c0-4.985,0.128-12.691,3.718-17.464
	c3.781-5.054,8.976-8.485,17.908-8.485c14.55,0,20.684,2.095,20.684,2.095l-2.884,17.272c0,0-4.808-1.405-9.294-1.405
	s-8.505,1.622-8.505,6.153v1.834v6.045v5.291h18.396l-1.281,16.858H65.563v58.59H43.938v-58.59h-11.54V37.288L32.397,37.288z"/>
<path display="none" fill-rule="evenodd" clip-rule="evenodd" fill="#FFFFFF" d="M12.142,92.513l30.693-35.066l11.497,9.847
	c0.662,0.571,1.484,0.859,2.304,0.859c0.819,0,1.642-0.288,2.3-0.859l11.5-9.847l30.694,35.066c-0.649,0.201-1.3,0.41-2.018,0.41
	H14.159C13.444,92.922,12.792,92.713,12.142,92.513 M7.081,85.842V29.227c0-0.732,0.209-1.396,0.417-2.059l29.959,25.668
	L7.359,87.228C7.261,86.765,7.081,86.335,7.081,85.842 M75.805,52.84l29.97-25.673c0.207,0.664,0.414,1.327,0.414,2.059v56.616
	c0,0.493-0.186,0.927-0.283,1.391L75.805,52.84z M12.831,22.419c0.442-0.088,0.857-0.268,1.328-0.268h84.953
	c0.472,0,0.883,0.18,1.328,0.268L56.636,59.955L12.831,22.419z M14.159,15.07C6.339,15.07,0,21.409,0,29.227v56.616
	c0,7.817,6.339,14.156,14.159,14.156h84.953c7.818,0,14.156-6.339,14.156-14.156V29.227c0-7.817-6.338-14.156-14.156-14.156H14.159z
	"/>
<path display="none" fill-rule="evenodd" clip-rule="evenodd" fill="#FFFFFF" d="M0.891,34.615c0.188,0.918,0.52,2.134,1,3.649
	s0.853,2.599,1.101,3.262c0.26,0.663,0.724,1.875,1.388,3.643c0.664,1.769,1.067,2.875,1.21,3.323
	c4.428,12.086,12.407,23.89,23.939,35.435c11.539,11.533,23.354,19.511,35.44,23.934c0.437,0.149,1.542,0.553,3.312,1.222
	c1.769,0.652,2.991,1.117,3.648,1.377c0.664,0.26,1.753,0.625,3.262,1.106s2.731,0.807,3.654,0.995
	c0.918,0.188,2.041,0.365,3.362,0.547c1.327,0.188,2.587,0.282,3.764,0.282c4.202,0,9.012-1.255,14.424-3.765
	c5.424-2.504,8.902-5.451,10.45-8.846c1.625-3.897,2.438-7.619,2.438-11.157c0-0.807-0.072-1.398-0.215-1.769
	c-0.222-0.592-1.643-1.669-4.257-3.261c-2.621-1.582-5.883-3.406-9.786-5.474l-5.854-3.201c-0.371-0.227-1.073-0.702-2.102-1.438
	c-1.034-0.741-1.957-1.294-2.764-1.664c-0.813-0.365-1.592-0.547-2.327-0.547c-1.333,0-3.058,1.2-5.192,3.594
	c-2.14,2.389-4.241,4.81-6.303,7.238c-2.068,2.432-3.693,3.653-4.865,3.653c-0.52,0-1.123-0.132-1.83-0.392
	c-0.703-0.26-1.271-0.498-1.714-0.713c-0.437-0.227-1.067-0.57-1.874-1.051c-0.818-0.481-1.333-0.79-1.553-0.94
	c-7.298-4.053-13.584-8.719-18.848-13.987c-5.274-5.275-9.935-11.556-13.987-18.854c-0.149-0.227-0.465-0.735-0.946-1.547
	c-0.475-0.808-0.823-1.438-1.044-1.886c-0.227-0.437-0.464-1.006-0.725-1.709c-0.254-0.701-0.381-1.31-0.381-1.83
	c0-0.951,0.757-2.19,2.267-3.698c1.509-1.51,3.168-2.931,4.976-4.258c1.802-1.327,3.461-2.781,4.976-4.368
	c1.51-1.581,2.267-2.924,2.267-4.03c0-0.747-0.188-1.515-0.559-2.327c-0.365-0.813-0.918-1.731-1.653-2.766
	c-0.736-1.033-1.222-1.73-1.443-2.1c-0.216-0.437-0.774-1.493-1.654-3.146c-0.889-1.664-1.807-3.339-2.764-5.03
	c-0.962-1.698-1.935-3.445-2.936-5.253c-0.995-1.813-1.913-3.3-2.764-4.483c-0.846-1.178-1.448-1.841-1.819-1.985
	c-0.37-0.149-0.961-0.227-1.769-0.227c-3.539,0-7.265,0.818-11.168,2.438C9.283,4.151,6.332,7.64,3.826,13.053
	c-2.504,5.418-3.759,10.228-3.759,14.436c0,1.177,0.089,2.427,0.276,3.754C0.526,32.569,0.714,33.691,0.891,34.615z"/>
<path fill="#FFFFFF" d="M102.2,57.512c-1.171-5.086-5.331-8.837-10.332-9.398c-11.856-1.323-23.859-1.329-35.8-1.323
	c-11.947-0.006-23.951,0-35.808,1.323c-5,0.561-9.16,4.312-10.331,9.398c-1.665,7.24-1.683,15.145-1.683,22.597
	c0,7.459,0,15.363,1.664,22.603c1.171,5.081,5.326,8.832,10.333,9.393c11.855,1.324,23.853,1.33,35.799,1.324
	c11.949,0.006,23.951,0,35.802-1.324c5.006-0.561,9.167-4.312,10.337-9.393c1.666-7.239,1.671-15.144,1.671-22.603
	C103.853,72.656,103.865,64.752,102.2,57.512L102.2,57.512z M35.521,63.124h-6.923v36.77H22.17v-36.77h-6.795v-6.025h20.146V63.124z
	 M52.975,99.894h-5.782v-3.476c-2.297,2.629-4.475,3.916-6.598,3.916c-1.867,0-3.147-0.756-3.726-2.372
	c-0.311-0.964-0.506-2.489-0.506-4.739V68.009h5.775v23.475c0,1.354,0,2.056,0.049,2.245c0.141,0.896,0.579,1.354,1.354,1.354
	c1.16,0,2.373-0.892,3.653-2.702V68.009h5.782V99.894z M74.926,90.325c0,2.946-0.202,5.074-0.586,6.422
	c-0.768,2.373-2.317,3.586-4.617,3.586c-2.055,0-4.037-1.14-5.971-3.531v3.092h-5.774V57.099h5.774v13.978
	c1.867-2.299,3.849-3.458,5.971-3.458c2.299,0,3.849,1.208,4.617,3.599c0.39,1.281,0.586,3.391,0.586,6.41V90.325z M96.729,85.006
	H85.178v5.654c0,2.944,0.963,4.422,2.952,4.422c1.42,0,2.25-0.775,2.58-2.318c0.049-0.311,0.128-1.598,0.128-3.916h5.892v0.842
	c0,1.866-0.067,3.147-0.122,3.726c-0.195,1.281-0.646,2.44-1.348,3.458c-1.598,2.318-3.97,3.458-6.99,3.458
	c-3.019,0-5.324-1.086-6.989-3.263c-1.226-1.598-1.86-4.11-1.86-7.501V78.401c0-3.403,0.561-5.897,1.787-7.514
	c1.671-2.178,3.971-3.27,6.923-3.27c2.897,0,5.196,1.092,6.813,3.27c1.213,1.616,1.793,4.11,1.793,7.514v6.605H96.729z
	 M96.729,85.006"/>
<path fill="#FFFFFF" d="M88.075,72.821c-1.934,0-2.897,1.476-2.897,4.421v2.952h5.776v-2.952
	C90.954,74.297,89.99,72.821,88.075,72.821L88.075,72.821z M88.075,72.821"/>
<path fill="#FFFFFF" d="M66.637,72.821c-0.951,0-1.92,0.451-2.885,1.403v19.437c0.964,0.964,1.934,1.421,2.885,1.421
	c1.666,0,2.513-1.421,2.513-4.306V77.169C69.149,74.297,68.302,72.821,66.637,72.821L66.637,72.821z M66.637,72.821"/>
<path fill="#FFFFFF" d="M69.863,43.851c2.128,0,4.343-1.292,6.666-3.952v3.513h5.843V11.185h-5.843v24.634
	c-1.293,1.823-2.519,2.732-3.684,2.732c-0.787,0-1.245-0.463-1.372-1.372c-0.067-0.189-0.067-0.896-0.067-2.269V11.185h-5.824
	v25.482c0,2.275,0.195,3.818,0.519,4.793C66.686,43.094,67.979,43.851,69.863,43.851L69.863,43.851z M69.863,43.851"/>
<path fill="#FFFFFF" d="M29.208,25.895v17.517h6.476V25.895L43.472,0.17h-6.543L32.507,17.15L27.916,0.17h-6.814
	c1.36,4.007,2.783,8.038,4.149,12.05C27.33,18.248,28.622,22.798,29.208,25.895L29.208,25.895z M29.208,25.895"/>
<path fill="#FFFFFF" d="M52.152,43.851c2.928,0,5.202-1.098,6.813-3.293c1.227-1.616,1.812-4.153,1.812-7.582V21.693
	c0-3.446-0.585-5.964-1.812-7.592c-1.611-2.204-3.885-3.308-6.813-3.308c-2.909,0-5.177,1.104-6.793,3.308
	c-1.245,1.628-1.83,4.146-1.83,7.592v11.282c0,3.429,0.585,5.966,1.83,7.582C46.968,42.753,49.243,43.851,52.152,43.851
	L52.152,43.851z M49.365,20.523c0-2.982,0.909-4.47,2.787-4.47c1.885,0,2.787,1.488,2.787,4.47V34.08
	c0,2.977-0.901,4.471-2.787,4.471c-1.878,0-2.787-1.494-2.787-4.471V20.523z M49.365,20.523"/>
</svg>
