<?xml version="1.0" encoding="utf-8"?>
<!-- Generator: Adobe Illustrator 16.0.0, SVG Export Plug-In . SVG Version: 6.00 Build 0)  -->
<!DOCTYPE svg PUBLIC "-//W3C//DTD SVG 1.1//EN" "http://www.w3.org/Graphics/SVG/1.1/DTD/svg11.dtd">
<svg version="1.1" id="圖層_1" xmlns="http://www.w3.org/2000/svg" xmlns:xlink="http://www.w3.org/1999/xlink" x="0px" y="0px"
	 width="85.039px" height="85.04px" viewBox="0 0 85.039 85.04" enable-background="new 0 0 85.039 85.04" xml:space="preserve">
<g id="_x30_4">
	<circle fill="#9ECAE2" cx="42.519" cy="42.521" r="42.519"/>
	<g>
		<path fill="#FFFFFF" d="M9.34,53.84l5.981-0.508c0.443,2.912,1.472,5.102,3.086,6.567c1.614,1.468,3.561,2.2,5.84,2.2
			c2.742,0,5.063-1.033,6.963-3.102c1.898-2.067,2.849-4.812,2.849-8.229c0-3.249-0.913-5.813-2.738-7.69
			c-1.825-1.877-4.215-2.818-7.169-2.818c-1.835,0-3.492,0.417-4.969,1.25s-2.638,1.916-3.481,3.244l-5.349-0.696l4.494-23.832
			H37.92v5.444H19.404l-2.5,12.47c2.785-1.941,5.707-2.912,8.767-2.912c4.051,0,7.47,1.403,10.255,4.209
			c2.785,2.807,4.178,6.415,4.178,10.823c0,4.199-1.225,7.83-3.672,10.889c-2.975,3.756-7.037,5.633-12.185,5.633
			c-4.221,0-7.665-1.181-10.334-3.543C11.243,60.877,9.719,57.745,9.34,53.84z"/>
		<path fill="#FFFFFF" d="M45.389,43.111c0-5.486,0.564-9.901,1.693-13.246c1.128-3.344,2.807-5.923,5.031-7.738
			c2.227-1.814,5.027-2.722,8.404-2.722c2.488,0,4.672,0.501,6.551,1.503c1.877,1.002,3.429,2.448,4.652,4.336
			c1.223,1.888,2.184,4.188,2.881,6.899c0.695,2.711,1.043,6.367,1.043,10.967c0,5.444-0.559,9.838-1.677,13.182
			c-1.118,3.346-2.791,5.93-5.017,7.754c-2.227,1.826-5.038,2.738-8.436,2.738c-4.474,0-7.986-1.604-10.539-4.812
			C46.918,58.113,45.389,51.825,45.389,43.111z M51.244,43.111c0,7.617,0.891,12.687,2.674,15.208s3.982,3.782,6.6,3.782
			c2.615,0,4.815-1.267,6.6-3.798c1.781-2.532,2.674-7.596,2.674-15.192c0-7.638-0.893-12.712-2.674-15.224
			c-1.783-2.511-4.004-3.766-6.662-3.766c-2.617,0-4.706,1.107-6.268,3.323C52.225,30.272,51.244,35.494,51.244,43.111z"/>
	</g>
</g>
</svg>
