<?xml version="1.0" encoding="utf-8"?>
<!-- Generator: Adobe Illustrator 16.0.0, SVG Export Plug-In . SVG Version: 6.00 Build 0)  -->
<!DOCTYPE svg PUBLIC "-//W3C//DTD SVG 1.1//EN" "http://www.w3.org/Graphics/SVG/1.1/DTD/svg11.dtd">
<svg version="1.1" id="圖層_1" xmlns="http://www.w3.org/2000/svg" xmlns:xlink="http://www.w3.org/1999/xlink" x="0px" y="0px"
	 width="85.039px" height="85.04px" viewBox="0 0 85.039 85.04" enable-background="new 0 0 85.039 85.04" xml:space="preserve">
<g id="_x30_1" display="none">
	<g display="inline">
		<path fill="#9ECAE2" d="M32.333,9.888h20.378c0.836,0,1.514-0.597,1.514-1.33c0-0.729-0.678-1.324-1.514-1.324H32.333
			c-0.839,0-1.518,0.596-1.518,1.324C30.815,9.291,31.494,9.888,32.333,9.888z M23.239,20.336c2.505,0,4.546-1.784,4.546-3.979
			V5.908c0-2.193-2.041-3.978-4.546-3.978c-2.507,0-4.548,1.785-4.548,3.978v10.449C18.691,18.552,20.731,20.336,23.239,20.336z
			 M21.723,5.908c0-0.732,0.68-1.322,1.516-1.322c0.835,0,1.517,0.59,1.517,1.322v10.449c0,0.73-0.682,1.325-1.517,1.325
			c-0.836,0-1.516-0.594-1.516-1.325V5.908z M61.802,20.336c2.508,0,4.548-1.784,4.548-3.979V5.908c0-2.193-2.04-3.978-4.548-3.978
			c-2.507,0-4.545,1.785-4.545,3.978v10.449C57.257,18.552,59.295,20.336,61.802,20.336z M60.288,5.908
			c0-0.732,0.68-1.322,1.514-1.322s1.517,0.59,1.517,1.322v10.449c0,0.73-0.683,1.325-1.517,1.325s-1.514-0.594-1.514-1.325V5.908z
			 M77.462,7.234h-6.567c-0.838,0-1.516,0.596-1.516,1.324c0,0.732,0.678,1.33,1.516,1.33h6.567c2.507,0,4.546,1.786,4.546,3.977
			v10.903H3.032V13.865c0-2.191,2.04-3.977,4.547-3.977h6.566c0.835,0,1.515-0.597,1.515-1.33c0-0.729-0.68-1.324-1.515-1.324H7.579
			C3.401,7.234,0,10.206,0,13.865v69.848c0,0.732,0.68,1.327,1.519,1.327h82.006c0.832,0,1.514-0.595,1.514-1.327V13.865
			C85.039,10.206,81.638,7.234,77.462,7.234z M82.008,82.387H3.032V27.422h78.976V82.387z M25.452,56.009h1.177v21.116
			c0,0.376,0.315,0.683,0.705,0.683h30.048c0.389,0,0.705-0.307,0.705-0.683V56.013h1.176c0.39,0,0.704-0.308,0.704-0.686v-9.106
			c0-0.377-0.314-0.682-0.704-0.682h-1.896c1.362-1.091,2.229-2.737,2.229-4.576c0-3.276-2.755-5.941-6.139-5.941
			c-1.62,0-3.159,0.646-4.317,1.746l-3.373,5.049c-0.553-1.294-1.875-2.207-3.409-2.207c-1.535,0-2.853,0.912-3.408,2.207
			l-3.389-5.088c-1.152-1.101-2.682-1.708-4.303-1.708c-3.385,0-6.139,2.665-6.139,5.941c0,1.839,0.869,3.484,2.229,4.574h-1.896
			c-0.389,0-0.704,0.307-0.704,0.684v9.106C24.748,55.705,25.063,56.009,25.452,56.009z M46.048,43.471l4.096-5.772
			c0.888-0.846,2.065-1.312,3.313-1.312c2.606,0,4.728,2.052,4.728,4.577c0,2.525-2.121,4.574-4.728,4.574h-7.409V43.471z
			 M40.078,43.182c0-1.219,1.024-2.208,2.279-2.208c1.259,0,2.279,0.99,2.279,2.208v2.357h-4.559V43.182z M26.529,40.963
			c0-2.524,2.122-4.577,4.729-4.577c1.248,0,2.426,0.466,3.314,1.312l4.096,5.772v2.066h-7.41
			C28.651,45.539,26.529,43.488,26.529,40.963z M26.159,46.905H36.95v21.166c0,0.248,0.137,0.473,0.356,0.597
			c0.225,0.119,0.494,0.115,0.711-0.011l4.34-2.517l4.339,2.517c0.112,0.065,0.239,0.097,0.362,0.097
			c0.121,0,0.241-0.027,0.349-0.086c0.222-0.124,0.358-0.349,0.358-0.597V46.905h10.79v7.738H49.88
			c-0.387,0-0.706,0.304-0.706,0.685c0,0.378,0.319,0.686,0.706,0.686h6.796v20.429H28.04V56.013h6.796
			c0.388,0,0.704-0.308,0.704-0.686c0-0.381-0.316-0.685-0.704-0.685h-8.677V46.905z M28.646,41.646
			c0.389,0,0.706-0.304,0.706-0.682c0-1.017,0.855-1.846,1.905-1.846c0.39,0,0.705-0.307,0.705-0.68
			c0-0.377-0.315-0.685-0.705-0.685c-1.829,0-3.316,1.439-3.316,3.211C27.941,41.342,28.259,41.646,28.646,41.646z"/>
	</g>
</g>
<g id="_x30_2" display="none">
	<g id="_x30_3" display="inline">
		<g>
			<path fill="#9ECAE2" d="M83.508,20.909h-4.123c2.96-2.169,4.848-5.441,4.848-9.099C84.232,5.3,78.24,0,70.877,0
				c-3.526,0-6.854,1.208-9.368,3.396L49.938,13.51c-1.208-2.569-4.077-4.385-7.419-4.385c-3.338,0-6.205,1.816-7.413,4.385
				L23.531,3.393C21.018,1.208,17.691,0,14.166,0C6.8,0,0.809,5.3,0.809,11.81c0,3.657,1.887,6.929,4.847,9.097H1.535
				C0.688,20.907,0,21.514,0,22.264v18.095c0,0.749,0.688,1.354,1.535,1.354h2.559v41.969c0,0.75,0.686,1.357,1.536,1.357h73.784
				c0.849,0,1.536-0.607,1.536-1.357V41.716h2.559c0.847,0,1.531-0.608,1.531-1.357V22.264
				C85.039,21.514,84.354,20.909,83.508,20.909z M50.548,16.792L63.663,5.33c1.937-1.688,4.499-2.613,7.214-2.613
				c5.67,0,10.283,4.081,10.283,9.094c0,5.018-4.613,9.097-10.283,9.097H50.548V16.792z M37.562,16.224
				c0-2.418,2.223-4.385,4.957-4.385c2.735,0,4.962,1.966,4.962,4.385v4.685h-9.919V16.224z M3.879,11.81
				c0-5.013,4.614-9.094,10.286-9.094c2.714,0,5.277,0.926,7.209,2.608l13.12,11.467v4.115H14.166
				C8.493,20.909,3.879,16.828,3.879,11.81z M81.97,39.001H58.89c-0.846,0-1.537,0.607-1.537,1.358c0,0.749,0.691,1.357,1.537,1.357
				h18.99v40.612H7.163V41.716h18.99c0.846,0,1.534-0.608,1.534-1.357c0-0.75-0.688-1.358-1.534-1.358H3.067V23.623h27.686v42.066
				c0,0.488,0.302,0.938,0.783,1.181c0.48,0.241,1.071,0.231,1.544-0.017l9.438-5.009l9.442,5.009
				c0.243,0.127,0.516,0.192,0.792,0.192c0.257,0,0.521-0.06,0.753-0.176c0.482-0.243,0.777-0.693,0.777-1.181V23.623H81.97V39.001z
				 M8.482,13.171c0.846,0,1.534-0.61,1.534-1.361c0-2.021,1.861-3.667,4.15-3.667c0.846,0,1.533-0.607,1.533-1.357
				c0-0.749-0.688-1.357-1.533-1.357c-3.98,0-7.219,2.866-7.219,6.381C6.946,12.561,7.637,13.171,8.482,13.171z"/>
		</g>
	</g>
	<circle display="inline" fill="#9ECAE2" cx="42.52" cy="52.976" r="29.353"/>
	<g display="inline">
		<path fill="#FFFFFF" d="M19.693,59.842l4.179-0.354c0.31,2.034,1.028,3.564,2.156,4.588c1.128,1.025,2.488,1.537,4.08,1.537
			c1.916,0,3.538-0.722,4.865-2.167c1.326-1.444,1.99-3.361,1.99-5.749c0-2.271-0.638-4.062-1.913-5.374s-2.945-1.968-5.009-1.968
			c-1.282,0-2.44,0.291-3.472,0.874c-1.032,0.583-1.843,1.338-2.433,2.267l-3.737-0.486l3.14-16.651h16.12v3.803H26.726
			l-1.747,8.713c1.945-1.356,3.987-2.035,6.125-2.035c2.83,0,5.219,0.98,7.165,2.941c1.945,1.961,2.919,4.482,2.919,7.563
			c0,2.934-0.855,5.47-2.565,7.607c-2.079,2.625-4.917,3.936-8.514,3.936c-2.948,0-5.355-0.825-7.22-2.477
			C21.023,64.759,19.958,62.569,19.693,59.842z"/>
		<path fill="#FFFFFF" d="M44.88,52.346c0-3.833,0.394-6.917,1.183-9.254c0.789-2.336,1.961-4.139,3.517-5.407
			c1.555-1.268,3.512-1.902,5.871-1.902c1.739,0,3.265,0.351,4.577,1.05c1.312,0.701,2.396,1.71,3.25,3.03
			c0.855,1.319,1.526,2.926,2.013,4.821s0.729,4.448,0.729,7.662c0,3.803-0.391,6.874-1.172,9.21
			c-0.781,2.337-1.949,4.143-3.505,5.417c-1.556,1.275-3.52,1.913-5.893,1.913c-3.126,0-5.581-1.12-7.364-3.361
			C45.948,62.827,44.88,58.435,44.88,52.346z M48.971,52.346c0,5.322,0.622,8.864,1.868,10.625s2.783,2.643,4.611,2.643
			c1.827,0,3.364-0.885,4.61-2.654c1.245-1.769,1.868-5.307,1.868-10.614c0-5.336-0.623-8.882-1.868-10.637
			c-1.246-1.754-2.798-2.631-4.655-2.631c-1.828,0-3.287,0.774-4.378,2.322C49.656,43.375,48.971,47.024,48.971,52.346z"/>
	</g>
</g>
<g id="_x30_3_1_" display="none">
	<g display="inline">
		<path fill="#9ECAE2" d="M83.508,20.909h-4.123c2.96-2.169,4.848-5.441,4.848-9.099C84.232,5.3,78.24,0,70.877,0
			c-3.526,0-6.854,1.208-9.368,3.396L49.938,13.51c-1.208-2.569-4.077-4.385-7.419-4.385c-3.338,0-6.205,1.816-7.413,4.385
			L23.531,3.393C21.018,1.208,17.691,0,14.166,0C6.8,0,0.809,5.3,0.809,11.81c0,3.657,1.887,6.929,4.847,9.097H1.535
			C0.688,20.907,0,21.514,0,22.264v18.095c0,0.749,0.688,1.354,1.535,1.354h2.559v41.969c0,0.75,0.686,1.357,1.536,1.357h73.784
			c0.849,0,1.536-0.607,1.536-1.357V41.716h2.559c0.847,0,1.531-0.608,1.531-1.357V22.264
			C85.039,21.514,84.354,20.909,83.508,20.909z M50.548,16.792L63.663,5.33c1.937-1.688,4.499-2.613,7.214-2.613
			c5.67,0,10.283,4.081,10.283,9.094c0,5.018-4.613,9.097-10.283,9.097H50.548V16.792z M37.562,16.224
			c0-2.418,2.223-4.385,4.957-4.385c2.735,0,4.962,1.966,4.962,4.385v4.685h-9.919V16.224z M3.879,11.81
			c0-5.013,4.614-9.094,10.286-9.094c2.714,0,5.277,0.926,7.209,2.608l13.12,11.467v4.115H14.166
			C8.493,20.909,3.879,16.828,3.879,11.81z M81.97,39.001H58.89c-0.846,0-1.537,0.607-1.537,1.358c0,0.749,0.691,1.357,1.537,1.357
			h18.99v40.612H7.163V41.716h18.99c0.846,0,1.534-0.608,1.534-1.357c0-0.75-0.688-1.358-1.534-1.358H3.067V23.623h27.686v42.066
			c0,0.488,0.302,0.938,0.783,1.181c0.48,0.241,1.071,0.231,1.544-0.017l9.438-5.009l9.442,5.009
			c0.243,0.127,0.516,0.192,0.792,0.192c0.257,0,0.521-0.06,0.753-0.176c0.482-0.243,0.777-0.693,0.777-1.181V23.623H81.97V39.001z
			 M8.482,13.171c0.846,0,1.534-0.61,1.534-1.361c0-2.021,1.861-3.667,4.15-3.667c0.846,0,1.533-0.607,1.533-1.357
			c0-0.749-0.688-1.357-1.533-1.357c-3.98,0-7.219,2.866-7.219,6.381C6.946,12.561,7.637,13.171,8.482,13.171z"/>
	</g>
</g>
<g id="_x30_4" display="none">
	<circle display="inline" fill="#9ECAE2" cx="42.519" cy="42.521" r="42.519"/>
	<g display="inline">
		<path fill="#FFFFFF" d="M9.34,53.84l5.981-0.507c0.443,2.912,1.472,5.101,3.086,6.567c1.614,1.467,3.561,2.2,5.84,2.2
			c2.742,0,5.063-1.033,6.963-3.102c1.898-2.067,2.849-4.811,2.849-8.229c0-3.249-0.913-5.813-2.738-7.691
			c-1.825-1.877-4.215-2.817-7.169-2.817c-1.835,0-3.492,0.417-4.969,1.25s-2.638,1.915-3.481,3.244l-5.349-0.697l4.494-23.832
			H37.92v5.444H19.404l-2.5,12.47c2.785-1.941,5.707-2.912,8.767-2.912c4.051,0,7.47,1.403,10.255,4.209
			c2.785,2.807,4.178,6.415,4.178,10.824c0,4.199-1.225,7.829-3.672,10.888c-2.975,3.756-7.037,5.633-12.185,5.633
			c-4.221,0-7.665-1.181-10.334-3.544C11.243,60.877,9.719,57.744,9.34,53.84z"/>
		<path fill="#FFFFFF" d="M45.389,43.111c0-5.486,0.564-9.901,1.693-13.246c1.128-3.344,2.806-5.923,5.032-7.738
			c2.226-1.814,5.026-2.722,8.403-2.722c2.489,0,4.673,0.501,6.551,1.503c1.878,1.002,3.429,2.448,4.652,4.336
			c1.224,1.889,2.185,4.188,2.881,6.899c0.696,2.711,1.044,6.367,1.044,10.967c0,5.444-0.559,9.838-1.677,13.182
			c-1.119,3.345-2.791,5.929-5.017,7.754c-2.227,1.825-5.038,2.737-8.435,2.737c-4.474,0-7.987-1.603-10.54-4.811
			C46.918,58.113,45.389,51.825,45.389,43.111z M51.244,43.111c0,7.617,0.891,12.687,2.674,15.208
			c1.783,2.522,3.982,3.782,6.6,3.782c2.615,0,4.815-1.266,6.599-3.798c1.782-2.532,2.674-7.596,2.674-15.192
			c0-7.638-0.892-12.712-2.674-15.224c-1.783-2.511-4.004-3.766-6.662-3.766c-2.617,0-4.706,1.107-6.267,3.323
			C52.225,30.272,51.244,35.494,51.244,43.111z"/>
	</g>
</g>
<g id="_x30_5">
	<g>
		<path fill="#9ECAE2" d="M36.053,16.593V0.143H15.804v16.45H0.106l7.57,68.552h34.924l9.151-68.552H36.053z M74.527,39.407v-10.98
			H61.019v10.98H50.539l5.056,45.738h23.301l6.106-45.738H74.527z"/>
	</g>
</g>
<g>
</g>
<g>
</g>
<g>
</g>
<g>
</g>
<g>
</g>
<g>
</g>
</svg>
