<?xml version="1.0" encoding="utf-8"?>
<!-- Generator: Adobe Illustrator 16.0.0, SVG Export Plug-In . SVG Version: 6.00 Build 0)  -->
<!DOCTYPE svg PUBLIC "-//W3C//DTD SVG 1.1//EN" "http://www.w3.org/Graphics/SVG/1.1/DTD/svg11.dtd">
<svg version="1.1" id="圖層_1" xmlns="http://www.w3.org/2000/svg" xmlns:xlink="http://www.w3.org/1999/xlink" x="0px" y="0px"
	 width="85.039px" height="85.04px" viewBox="0 0 85.039 85.04" enable-background="new 0 0 85.039 85.04" xml:space="preserve">
<g id="_x30_3_1_">
	<g>
		<path fill="#9ECAE2" d="M83.508,20.909h-4.123c2.961-2.169,4.848-5.441,4.848-9.099C84.232,5.3,78.24,0,70.877,0
			c-3.525,0-6.854,1.208-9.368,3.396L49.938,13.51c-1.207-2.569-4.076-4.385-7.418-4.385c-3.338,0-6.205,1.816-7.413,4.385
			L23.531,3.393C21.018,1.208,17.691,0,14.166,0C6.8,0,0.809,5.3,0.809,11.81c0,3.657,1.887,6.929,4.847,9.097H1.535
			C0.688,20.907,0,21.514,0,22.264v18.095c0,0.749,0.688,1.354,1.535,1.354h2.559v41.969c0,0.75,0.686,1.357,1.536,1.357h73.784
			c0.85,0,1.536-0.607,1.536-1.357V41.716h2.559c0.847,0,1.531-0.608,1.531-1.357V22.264C85.039,21.514,84.354,20.909,83.508,20.909
			z M50.548,16.792L63.663,5.33c1.937-1.688,4.499-2.613,7.214-2.613c5.67,0,10.283,4.081,10.283,9.094
			c0,5.018-4.613,9.097-10.283,9.097H50.548V16.792z M37.562,16.224c0-2.418,2.223-4.385,4.957-4.385
			c2.735,0,4.961,1.966,4.961,4.385v4.685h-9.918V16.224z M3.879,11.81c0-5.013,4.614-9.094,10.286-9.094
			c2.714,0,5.277,0.926,7.209,2.608l13.12,11.467v4.115H14.166C8.493,20.909,3.879,16.828,3.879,11.81z M81.971,39.001h-23.08
			c-0.847,0-1.537,0.607-1.537,1.358c0,0.749,0.69,1.357,1.537,1.357H77.88v40.613H7.163V41.716h18.99
			c0.846,0,1.534-0.608,1.534-1.357c0-0.75-0.688-1.358-1.534-1.358H3.067V23.623h27.686v42.066c0,0.487,0.302,0.938,0.783,1.181
			c0.48,0.241,1.071,0.231,1.544-0.017l9.438-5.009l9.442,5.009c0.243,0.127,0.517,0.192,0.792,0.192
			c0.257,0,0.521-0.061,0.753-0.176c0.481-0.244,0.777-0.693,0.777-1.182V23.623h27.688V39.001z M8.482,13.171
			c0.846,0,1.534-0.61,1.534-1.361c0-2.021,1.861-3.667,4.15-3.667c0.846,0,1.533-0.607,1.533-1.357
			c0-0.749-0.688-1.357-1.533-1.357c-3.98,0-7.219,2.866-7.219,6.381C6.946,12.561,7.637,13.171,8.482,13.171z"/>
	</g>
</g>
</svg>
