<?xml version="1.0" encoding="utf-8"?>
<!-- Generator: Adobe Illustrator 16.0.0, SVG Export Plug-In . SVG Version: 6.00 Build 0)  -->
<!DOCTYPE svg PUBLIC "-//W3C//DTD SVG 1.1//EN" "http://www.w3.org/Graphics/SVG/1.1/DTD/svg11.dtd">
<svg version="1.1" id="圖層_1" xmlns="http://www.w3.org/2000/svg" xmlns:xlink="http://www.w3.org/1999/xlink" x="0px" y="0px"
	 width="85.039px" height="85.04px" viewBox="0 0 85.039 85.04" enable-background="new 0 0 85.039 85.04" xml:space="preserve">
<g id="_x30_1" display="none">
	<g display="inline">
		<path fill="#9ECAE2" d="M32.333,9.888h20.378c0.836,0,1.514-0.597,1.514-1.33c0-0.729-0.678-1.324-1.514-1.324H32.333
			c-0.839,0-1.518,0.596-1.518,1.324C30.815,9.291,31.494,9.888,32.333,9.888z M23.239,20.336c2.505,0,4.546-1.784,4.546-3.979
			V5.908c0-2.193-2.041-3.978-4.546-3.978c-2.507,0-4.548,1.785-4.548,3.978v10.449C18.691,18.552,20.731,20.336,23.239,20.336z
			 M21.723,5.908c0-0.732,0.68-1.322,1.516-1.322c0.835,0,1.517,0.59,1.517,1.322v10.449c0,0.73-0.682,1.325-1.517,1.325
			c-0.836,0-1.516-0.594-1.516-1.325V5.908z M61.802,20.336c2.508,0,4.548-1.784,4.548-3.979V5.908c0-2.193-2.04-3.978-4.548-3.978
			c-2.507,0-4.545,1.785-4.545,3.978v10.449C57.257,18.552,59.295,20.336,61.802,20.336z M60.288,5.908
			c0-0.732,0.68-1.322,1.514-1.322s1.517,0.59,1.517,1.322v10.449c0,0.73-0.683,1.325-1.517,1.325s-1.514-0.594-1.514-1.325V5.908z
			 M77.462,7.234h-6.567c-0.838,0-1.516,0.596-1.516,1.324c0,0.732,0.678,1.33,1.516,1.33h6.567c2.507,0,4.546,1.786,4.546,3.977
			v10.903H3.032V13.865c0-2.191,2.04-3.977,4.547-3.977h6.566c0.835,0,1.515-0.597,1.515-1.33c0-0.729-0.68-1.324-1.515-1.324H7.579
			C3.401,7.234,0,10.206,0,13.865v69.848c0,0.732,0.68,1.327,1.519,1.327h82.006c0.832,0,1.514-0.595,1.514-1.327V13.865
			C85.039,10.206,81.638,7.234,77.462,7.234z M82.008,82.387H3.032V27.422h78.976V82.387z M25.452,56.009h1.177v21.116
			c0,0.376,0.315,0.683,0.705,0.683h30.048c0.389,0,0.705-0.307,0.705-0.683V56.013h1.176c0.39,0,0.704-0.308,0.704-0.686v-9.106
			c0-0.377-0.314-0.682-0.704-0.682h-1.896c1.362-1.091,2.229-2.737,2.229-4.576c0-3.276-2.755-5.941-6.139-5.941
			c-1.62,0-3.159,0.646-4.317,1.746l-3.373,5.049c-0.553-1.294-1.875-2.207-3.409-2.207c-1.535,0-2.853,0.912-3.408,2.207
			l-3.389-5.088c-1.152-1.101-2.682-1.708-4.303-1.708c-3.385,0-6.139,2.665-6.139,5.941c0,1.839,0.869,3.484,2.229,4.574h-1.896
			c-0.389,0-0.704,0.307-0.704,0.684v9.106C24.748,55.705,25.063,56.009,25.452,56.009z M46.048,43.471l4.096-5.772
			c0.888-0.846,2.065-1.312,3.313-1.312c2.606,0,4.728,2.052,4.728,4.577c0,2.525-2.121,4.574-4.728,4.574h-7.409V43.471z
			 M40.078,43.182c0-1.219,1.024-2.208,2.279-2.208c1.259,0,2.279,0.99,2.279,2.208v2.357h-4.559V43.182z M26.529,40.963
			c0-2.524,2.122-4.577,4.729-4.577c1.248,0,2.426,0.466,3.314,1.312l4.096,5.772v2.066h-7.41
			C28.651,45.539,26.529,43.488,26.529,40.963z M26.159,46.905H36.95v21.166c0,0.248,0.137,0.473,0.356,0.597
			c0.225,0.119,0.494,0.115,0.711-0.011l4.34-2.517l4.339,2.517c0.112,0.065,0.239,0.097,0.362,0.097
			c0.121,0,0.241-0.027,0.349-0.086c0.222-0.124,0.358-0.349,0.358-0.597V46.905h10.79v7.738H49.88
			c-0.387,0-0.706,0.304-0.706,0.685c0,0.378,0.319,0.686,0.706,0.686h6.796v20.429H28.04V56.013h6.796
			c0.388,0,0.704-0.308,0.704-0.686c0-0.381-0.316-0.685-0.704-0.685h-8.677V46.905z M28.646,41.646
			c0.389,0,0.706-0.304,0.706-0.682c0-1.017,0.855-1.846,1.905-1.846c0.39,0,0.705-0.307,0.705-0.68
			c0-0.377-0.315-0.685-0.705-0.685c-1.829,0-3.316,1.439-3.316,3.211C27.941,41.342,28.259,41.646,28.646,41.646z"/>
	</g>
</g>
<g id="_x30_2" display="none">
	<g id="_x30_3" display="inline">
		<g>
			<path fill="#9ECAE2" d="M83.508,20.909h-4.123c2.96-2.169,4.848-5.441,4.848-9.099C84.232,5.3,78.24,0,70.877,0
				c-3.526,0-6.854,1.208-9.368,3.396L49.938,13.51c-1.208-2.569-4.077-4.385-7.419-4.385c-3.338,0-6.205,1.816-7.413,4.385
				L23.531,3.393C21.018,1.208,17.691,0,14.166,0C6.8,0,0.809,5.3,0.809,11.81c0,3.657,1.887,6.929,4.847,9.097H1.535
				C0.688,20.907,0,21.514,0,22.264v18.095c0,0.749,0.688,1.354,1.535,1.354h2.559v41.969c0,0.75,0.686,1.357,1.536,1.357h73.784
				c0.849,0,1.536-0.607,1.536-1.357V41.716h2.559c0.847,0,1.531-0.608,1.531-1.357V22.264
				C85.039,21.514,84.354,20.909,83.508,20.909z M50.548,16.792L63.663,5.33c1.937-1.688,4.499-2.613,7.214-2.613
				c5.67,0,10.283,4.081,10.283,9.094c0,5.018-4.613,9.097-10.283,9.097H50.548V16.792z M37.562,16.224
				c0-2.418,2.223-4.385,4.957-4.385c2.735,0,4.962,1.966,4.962,4.385v4.685h-9.919V16.224z M3.879,11.81
				c0-5.013,4.614-9.094,10.286-9.094c2.714,0,5.277,0.926,7.209,2.608l13.12,11.467v4.115H14.166
				C8.493,20.909,3.879,16.828,3.879,11.81z M81.97,39.001H58.89c-0.846,0-1.537,0.607-1.537,1.358c0,0.749,0.691,1.357,1.537,1.357
				h18.99v40.612H7.163V41.716h18.99c0.846,0,1.534-0.608,1.534-1.357c0-0.75-0.688-1.358-1.534-1.358H3.067V23.623h27.686v42.066
				c0,0.488,0.302,0.938,0.783,1.181c0.48,0.241,1.071,0.231,1.544-0.017l9.438-5.009l9.442,5.009
				c0.243,0.127,0.516,0.192,0.792,0.192c0.257,0,0.521-0.06,0.753-0.176c0.482-0.243,0.777-0.693,0.777-1.181V23.623H81.97V39.001z
				 M8.482,13.171c0.846,0,1.534-0.61,1.534-1.361c0-2.021,1.861-3.667,4.15-3.667c0.846,0,1.533-0.607,1.533-1.357
				c0-0.749-0.688-1.357-1.533-1.357c-3.98,0-7.219,2.866-7.219,6.381C6.946,12.561,7.637,13.171,8.482,13.171z"/>
		</g>
	</g>
	<circle display="inline" fill="#9ECAE2" cx="42.52" cy="52.976" r="29.353"/>
	<g display="inline">
		<path fill="#FFFFFF" d="M19.693,59.842l4.179-0.354c0.31,2.034,1.028,3.564,2.156,4.588c1.128,1.025,2.488,1.537,4.08,1.537
			c1.916,0,3.538-0.722,4.865-2.167c1.326-1.444,1.99-3.361,1.99-5.749c0-2.271-0.638-4.062-1.913-5.374s-2.945-1.968-5.009-1.968
			c-1.282,0-2.44,0.291-3.472,0.874c-1.032,0.583-1.843,1.338-2.433,2.267l-3.737-0.486l3.14-16.651h16.12v3.803H26.726
			l-1.747,8.713c1.945-1.356,3.987-2.035,6.125-2.035c2.83,0,5.219,0.98,7.165,2.941c1.945,1.961,2.919,4.482,2.919,7.563
			c0,2.934-0.855,5.47-2.565,7.607c-2.079,2.625-4.917,3.936-8.514,3.936c-2.948,0-5.355-0.825-7.22-2.477
			C21.023,64.759,19.958,62.569,19.693,59.842z"/>
		<path fill="#FFFFFF" d="M44.88,52.346c0-3.833,0.394-6.917,1.183-9.254c0.789-2.336,1.961-4.139,3.517-5.407
			c1.555-1.268,3.512-1.902,5.871-1.902c1.739,0,3.265,0.351,4.577,1.05c1.312,0.701,2.396,1.71,3.25,3.03
			c0.855,1.319,1.526,2.926,2.013,4.821s0.729,4.448,0.729,7.662c0,3.803-0.391,6.874-1.172,9.21
			c-0.781,2.337-1.949,4.143-3.505,5.417c-1.556,1.275-3.52,1.913-5.893,1.913c-3.126,0-5.581-1.12-7.364-3.361
			C45.948,62.827,44.88,58.435,44.88,52.346z M48.971,52.346c0,5.322,0.622,8.864,1.868,10.625s2.783,2.643,4.611,2.643
			c1.827,0,3.364-0.885,4.61-2.654c1.245-1.769,1.868-5.307,1.868-10.614c0-5.336-0.623-8.882-1.868-10.637
			c-1.246-1.754-2.798-2.631-4.655-2.631c-1.828,0-3.287,0.774-4.378,2.322C49.656,43.375,48.971,47.024,48.971,52.346z"/>
	</g>
</g>
<g id="_x30_3_1_" display="none">
	<g display="inline">
		<path fill="#9ECAE2" d="M83.508,20.909h-4.123c2.96-2.169,4.848-5.441,4.848-9.099C84.232,5.3,78.24,0,70.877,0
			c-3.526,0-6.854,1.208-9.368,3.396L49.938,13.51c-1.208-2.569-4.077-4.385-7.419-4.385c-3.338,0-6.205,1.816-7.413,4.385
			L23.531,3.393C21.018,1.208,17.691,0,14.166,0C6.8,0,0.809,5.3,0.809,11.81c0,3.657,1.887,6.929,4.847,9.097H1.535
			C0.688,20.907,0,21.514,0,22.264v18.095c0,0.749,0.688,1.354,1.535,1.354h2.559v41.969c0,0.75,0.686,1.357,1.536,1.357h73.784
			c0.849,0,1.536-0.607,1.536-1.357V41.716h2.559c0.847,0,1.531-0.608,1.531-1.357V22.264
			C85.039,21.514,84.354,20.909,83.508,20.909z M50.548,16.792L63.663,5.33c1.937-1.688,4.499-2.613,7.214-2.613
			c5.67,0,10.283,4.081,10.283,9.094c0,5.018-4.613,9.097-10.283,9.097H50.548V16.792z M37.562,16.224
			c0-2.418,2.223-4.385,4.957-4.385c2.735,0,4.962,1.966,4.962,4.385v4.685h-9.919V16.224z M3.879,11.81
			c0-5.013,4.614-9.094,10.286-9.094c2.714,0,5.277,0.926,7.209,2.608l13.12,11.467v4.115H14.166
			C8.493,20.909,3.879,16.828,3.879,11.81z M81.97,39.001H58.89c-0.846,0-1.537,0.607-1.537,1.358c0,0.749,0.691,1.357,1.537,1.357
			h18.99v40.612H7.163V41.716h18.99c0.846,0,1.534-0.608,1.534-1.357c0-0.75-0.688-1.358-1.534-1.358H3.067V23.623h27.686v42.066
			c0,0.488,0.302,0.938,0.783,1.181c0.48,0.241,1.071,0.231,1.544-0.017l9.438-5.009l9.442,5.009
			c0.243,0.127,0.516,0.192,0.792,0.192c0.257,0,0.521-0.06,0.753-0.176c0.482-0.243,0.777-0.693,0.777-1.181V23.623H81.97V39.001z
			 M8.482,13.171c0.846,0,1.534-0.61,1.534-1.361c0-2.021,1.861-3.667,4.15-3.667c0.846,0,1.533-0.607,1.533-1.357
			c0-0.749-0.688-1.357-1.533-1.357c-3.98,0-7.219,2.866-7.219,6.381C6.946,12.561,7.637,13.171,8.482,13.171z"/>
	</g>
</g>
<g id="_x30_4" display="none">
	<circle display="inline" fill="#9ECAE2" cx="42.519" cy="42.521" r="42.519"/>
	<g display="inline">
		<path fill="#FFFFFF" d="M9.34,53.84l5.981-0.507c0.443,2.912,1.472,5.101,3.086,6.567c1.614,1.467,3.561,2.2,5.84,2.2
			c2.742,0,5.063-1.033,6.963-3.102c1.898-2.067,2.849-4.811,2.849-8.229c0-3.249-0.913-5.813-2.738-7.691
			c-1.825-1.877-4.215-2.817-7.169-2.817c-1.835,0-3.492,0.417-4.969,1.25s-2.638,1.915-3.481,3.244l-5.349-0.697l4.494-23.832
			H37.92v5.444H19.404l-2.5,12.47c2.785-1.941,5.707-2.912,8.767-2.912c4.051,0,7.47,1.403,10.255,4.209
			c2.785,2.807,4.178,6.415,4.178,10.824c0,4.199-1.225,7.829-3.672,10.888c-2.975,3.756-7.037,5.633-12.185,5.633
			c-4.221,0-7.665-1.181-10.334-3.544C11.243,60.877,9.719,57.744,9.34,53.84z"/>
		<path fill="#FFFFFF" d="M45.389,43.111c0-5.486,0.564-9.901,1.693-13.246c1.128-3.344,2.806-5.923,5.032-7.738
			c2.226-1.814,5.026-2.722,8.403-2.722c2.489,0,4.673,0.501,6.551,1.503c1.878,1.002,3.429,2.448,4.652,4.336
			c1.224,1.889,2.185,4.188,2.881,6.899c0.696,2.711,1.044,6.367,1.044,10.967c0,5.444-0.559,9.838-1.677,13.182
			c-1.119,3.345-2.791,5.929-5.017,7.754c-2.227,1.825-5.038,2.737-8.435,2.737c-4.474,0-7.987-1.603-10.54-4.811
			C46.918,58.113,45.389,51.825,45.389,43.111z M51.244,43.111c0,7.617,0.891,12.687,2.674,15.208
			c1.783,2.522,3.982,3.782,6.6,3.782c2.615,0,4.815-1.266,6.599-3.798c1.782-2.532,2.674-7.596,2.674-15.192
			c0-7.638-0.892-12.712-2.674-15.224c-1.783-2.511-4.004-3.766-6.662-3.766c-2.617,0-4.706,1.107-6.267,3.323
			C52.225,30.272,51.244,35.494,51.244,43.111z"/>
	</g>
</g>
<g id="_x30_5" display="none">
	<g display="inline">
		<path fill="#9ECAE2" d="M36.053,16.593V0.143H15.804v16.45H0.106l7.57,68.552h34.924l9.151-68.552H36.053z M74.527,39.407v-10.98
			H61.019v10.98H50.539l5.056,45.738h23.301l6.106-45.738H74.527z"/>
	</g>
</g>
<g id="_x30_6" display="none">
	<g id="_x30_3_4_" display="inline">
		<g>
			<path fill="#9ECAE2" d="M83.508,20.909h-4.123c2.96-2.169,4.848-5.441,4.848-9.099C84.232,5.3,78.24,0,70.877,0
				c-3.526,0-6.854,1.208-9.368,3.396L49.938,13.51c-1.208-2.569-4.077-4.385-7.419-4.385c-3.338,0-6.205,1.816-7.413,4.385
				L23.531,3.393C21.018,1.208,17.691,0,14.166,0C6.8,0,0.809,5.3,0.809,11.81c0,3.657,1.887,6.929,4.847,9.097H1.535
				C0.688,20.907,0,21.514,0,22.264v18.095c0,0.749,0.688,1.354,1.535,1.354h2.559v41.969c0,0.75,0.686,1.357,1.536,1.357h73.784
				c0.849,0,1.536-0.607,1.536-1.357V41.716h2.559c0.847,0,1.531-0.608,1.531-1.357V22.264
				C85.039,21.514,84.354,20.909,83.508,20.909z M50.548,16.792L63.663,5.33c1.937-1.688,4.499-2.613,7.214-2.613
				c5.67,0,10.283,4.081,10.283,9.094c0,5.018-4.613,9.097-10.283,9.097H50.548V16.792z M37.562,16.224
				c0-2.418,2.223-4.385,4.957-4.385c2.735,0,4.962,1.966,4.962,4.385v4.685h-9.919V16.224z M3.879,11.81
				c0-5.013,4.614-9.094,10.286-9.094c2.714,0,5.277,0.926,7.209,2.608l13.12,11.467v4.115H14.166
				C8.493,20.909,3.879,16.828,3.879,11.81z M81.97,39.001H58.89c-0.846,0-1.537,0.607-1.537,1.358c0,0.749,0.691,1.357,1.537,1.357
				h18.99v40.612H7.163V41.716h18.99c0.846,0,1.534-0.608,1.534-1.357c0-0.75-0.688-1.358-1.534-1.358H3.067V23.623h27.686v42.066
				c0,0.488,0.302,0.938,0.783,1.181c0.48,0.241,1.071,0.231,1.544-0.017l9.438-5.009l9.442,5.009
				c0.243,0.127,0.516,0.192,0.792,0.192c0.257,0,0.521-0.06,0.753-0.176c0.482-0.243,0.777-0.693,0.777-1.181V23.623H81.97V39.001z
				 M8.482,13.171c0.846,0,1.534-0.61,1.534-1.361c0-2.021,1.861-3.667,4.15-3.667c0.846,0,1.533-0.607,1.533-1.357
				c0-0.749-0.688-1.357-1.533-1.357c-3.98,0-7.219,2.866-7.219,6.381C6.946,12.561,7.637,13.171,8.482,13.171z"/>
		</g>
	</g>
	<circle display="inline" fill="#9ECAE2" cx="42.52" cy="52.976" r="29.353"/>
	<g display="inline">
		<path fill="#FFFFFF" d="M22.663,63.677v-2.285c-1.143-0.144-2.071-0.399-2.786-0.769c-0.716-0.367-1.334-0.962-1.854-1.783
			c-0.521-0.821-0.823-1.824-0.908-3.009l2.298-0.432c0.178,1.228,0.491,2.129,0.939,2.704c0.644,0.813,1.413,1.266,2.311,1.358
			v-7.274c-0.939-0.178-1.9-0.542-2.882-1.092c-0.728-0.406-1.289-0.969-1.682-1.688c-0.395-0.719-0.591-1.536-0.591-2.45
			c0-1.625,0.575-2.941,1.727-3.948c0.771-0.677,1.913-1.092,3.428-1.244v-1.092h1.346v1.092c1.329,0.127,2.383,0.516,3.161,1.168
			c0.999,0.83,1.6,1.968,1.803,3.415l-2.361,0.355c-0.136-0.897-0.417-1.585-0.844-2.063c-0.428-0.478-1.014-0.793-1.759-0.946
			v6.589c1.151,0.288,1.913,0.512,2.285,0.673c0.711,0.313,1.291,0.694,1.739,1.143s0.793,0.982,1.035,1.6
			c0.24,0.618,0.361,1.286,0.361,2.006c0,1.583-0.504,2.903-1.511,3.961s-2.311,1.625-3.91,1.701v2.311H22.663z M22.663,43.669
			c-0.889,0.135-1.589,0.491-2.101,1.066c-0.513,0.576-0.769,1.257-0.769,2.044c0,0.779,0.218,1.43,0.653,1.955
			c0.437,0.525,1.175,0.944,2.216,1.257V43.669z M24.009,59.462c0.889-0.11,1.623-0.495,2.202-1.155c0.58-0.66,0.87-1.477,0.87-2.45
			c0-0.829-0.205-1.496-0.616-1.999c-0.41-0.504-1.229-0.955-2.456-1.353V59.462z"/>
		<path fill="#FFFFFF" d="M42.285,46.945l-2.272,0.178c-0.203-0.897-0.491-1.549-0.863-1.955c-0.618-0.652-1.38-0.978-2.285-0.978
			c-0.728,0-1.367,0.203-1.917,0.609c-0.72,0.525-1.286,1.291-1.701,2.298s-0.631,2.442-0.647,4.304
			c0.55-0.838,1.223-1.46,2.019-1.866s1.629-0.609,2.501-0.609c1.523,0,2.82,0.561,3.892,1.682c1.07,1.122,1.605,2.571,1.605,4.348
			c0,1.168-0.252,2.254-0.756,3.256c-0.503,1.004-1.195,1.771-2.075,2.305s-1.879,0.8-2.996,0.8c-1.904,0-3.457-0.7-4.659-2.101
			c-1.202-1.401-1.803-3.71-1.803-6.926c0-3.597,0.664-6.212,1.993-7.846c1.159-1.422,2.721-2.133,4.685-2.133
			c1.464,0,2.664,0.411,3.6,1.231C41.538,44.363,42.099,45.498,42.285,46.945z M32.954,54.968c0,0.787,0.167,1.54,0.501,2.26
			c0.335,0.72,0.803,1.268,1.403,1.644c0.601,0.377,1.231,0.565,1.892,0.565c0.965,0,1.794-0.39,2.488-1.168
			s1.041-1.837,1.041-3.174c0-1.286-0.343-2.3-1.028-3.041s-1.549-1.111-2.59-1.111c-1.032,0-1.908,0.37-2.628,1.111
			S32.954,53.766,32.954,54.968z"/>
		<path fill="#FFFFFF" d="M43.588,51.82c0-2.201,0.227-3.972,0.68-5.313c0.452-1.341,1.125-2.376,2.018-3.104
			c0.894-0.728,2.017-1.092,3.371-1.092c0.999,0,1.875,0.201,2.628,0.603s1.375,0.982,1.866,1.739s0.876,1.68,1.155,2.768
			s0.419,2.554,0.419,4.399c0,2.184-0.225,3.946-0.673,5.288c-0.448,1.341-1.119,2.378-2.013,3.109
			c-0.893,0.732-2.021,1.099-3.383,1.099c-1.794,0-3.203-0.644-4.228-1.93C44.201,57.837,43.588,55.315,43.588,51.82z M45.937,51.82
			c0,3.056,0.357,5.089,1.073,6.101c0.715,1.011,1.597,1.517,2.646,1.517s1.932-0.508,2.646-1.523
			c0.716-1.016,1.073-3.047,1.073-6.094c0-3.064-0.357-5.099-1.073-6.106c-0.715-1.007-1.605-1.511-2.672-1.511
			c-1.05,0-1.888,0.444-2.514,1.333C46.33,46.67,45.937,48.765,45.937,51.82z"/>
		<path fill="#FFFFFF" d="M56.747,51.82c0-2.201,0.227-3.972,0.679-5.313c0.453-1.341,1.126-2.376,2.02-3.104
			c0.893-0.728,2.016-1.092,3.37-1.092c0.999,0,1.875,0.201,2.628,0.603s1.375,0.982,1.866,1.739s0.876,1.68,1.155,2.768
			s0.419,2.554,0.419,4.399c0,2.184-0.225,3.946-0.673,5.288c-0.448,1.341-1.119,2.378-2.012,3.109
			c-0.894,0.732-2.021,1.099-3.384,1.099c-1.794,0-3.203-0.644-4.228-1.93C57.36,57.837,56.747,55.315,56.747,51.82z M59.096,51.82
			c0,3.056,0.357,5.089,1.072,6.101c0.716,1.011,1.598,1.517,2.647,1.517s1.932-0.508,2.647-1.523
			c0.715-1.016,1.072-3.047,1.072-6.094c0-3.064-0.357-5.099-1.072-6.106c-0.716-1.007-1.606-1.511-2.673-1.511
			c-1.05,0-1.888,0.444-2.514,1.333C59.489,46.67,59.096,48.765,59.096,51.82z"/>
	</g>
</g>
<g id="_x30_7">
	<g id="_x30_3_6_">
		<g>
			<path fill="#9ECAE2" d="M83.508,20.909h-4.123c2.96-2.169,4.848-5.441,4.848-9.099C84.232,5.3,78.24,0,70.877,0
				c-3.526,0-6.854,1.208-9.368,3.396L49.938,13.51c-1.208-2.569-4.077-4.385-7.419-4.385c-3.338,0-6.205,1.816-7.413,4.385
				L23.531,3.393C21.018,1.208,17.691,0,14.166,0C6.8,0,0.809,5.3,0.809,11.81c0,3.657,1.887,6.929,4.847,9.097H1.535
				C0.688,20.907,0,21.514,0,22.264v18.095c0,0.749,0.688,1.354,1.535,1.354h2.559v41.969c0,0.75,0.686,1.357,1.536,1.357h73.784
				c0.849,0,1.536-0.607,1.536-1.357V41.716h2.559c0.847,0,1.531-0.608,1.531-1.357V22.264
				C85.039,21.514,84.354,20.909,83.508,20.909z M50.548,16.792L63.663,5.33c1.937-1.688,4.499-2.613,7.214-2.613
				c5.67,0,10.283,4.081,10.283,9.094c0,5.018-4.613,9.097-10.283,9.097H50.548V16.792z M37.562,16.224
				c0-2.418,2.223-4.385,4.957-4.385c2.735,0,4.962,1.966,4.962,4.385v4.685h-9.919V16.224z M3.879,11.81
				c0-5.013,4.614-9.094,10.286-9.094c2.714,0,5.277,0.926,7.209,2.608l13.12,11.467v4.115H14.166
				C8.493,20.909,3.879,16.828,3.879,11.81z M81.97,39.001H58.89c-0.846,0-1.537,0.607-1.537,1.358c0,0.749,0.691,1.357,1.537,1.357
				h18.99v40.612H7.163V41.716h18.99c0.846,0,1.534-0.608,1.534-1.357c0-0.75-0.688-1.358-1.534-1.358H3.067V23.623h27.686v42.066
				c0,0.488,0.302,0.938,0.783,1.181c0.48,0.241,1.071,0.231,1.544-0.017l9.438-5.009l9.442,5.009
				c0.243,0.127,0.516,0.192,0.792,0.192c0.257,0,0.521-0.06,0.753-0.176c0.482-0.243,0.777-0.693,0.777-1.181V23.623H81.97V39.001z
				 M8.482,13.171c0.846,0,1.534-0.61,1.534-1.361c0-2.021,1.861-3.667,4.15-3.667c0.846,0,1.533-0.607,1.533-1.357
				c0-0.749-0.688-1.357-1.533-1.357c-3.98,0-7.219,2.866-7.219,6.381C6.946,12.561,7.637,13.171,8.482,13.171z"/>
		</g>
	</g>
	<circle fill="#9ECAE2" cx="42.52" cy="52.976" r="29.353"/>
	<g>
		<path fill="#FFFFFF" d="M22.663,63.677v-2.285c-1.143-0.144-2.071-0.399-2.786-0.769c-0.716-0.367-1.334-0.962-1.854-1.783
			c-0.521-0.821-0.823-1.824-0.908-3.009l2.298-0.432c0.178,1.228,0.491,2.129,0.939,2.704c0.644,0.813,1.413,1.266,2.311,1.358
			v-7.274c-0.939-0.178-1.9-0.542-2.882-1.092c-0.728-0.406-1.289-0.969-1.682-1.688c-0.395-0.719-0.591-1.536-0.591-2.45
			c0-1.625,0.575-2.941,1.727-3.948c0.771-0.677,1.913-1.092,3.428-1.244v-1.092h1.346v1.092c1.329,0.127,2.383,0.516,3.161,1.168
			c0.999,0.83,1.6,1.968,1.803,3.415l-2.361,0.355c-0.136-0.897-0.417-1.585-0.844-2.063c-0.428-0.478-1.014-0.793-1.759-0.946
			v6.589c1.151,0.288,1.913,0.512,2.285,0.673c0.711,0.313,1.291,0.694,1.739,1.143s0.793,0.982,1.035,1.6
			c0.24,0.618,0.361,1.286,0.361,2.006c0,1.583-0.504,2.903-1.511,3.961s-2.311,1.625-3.91,1.701v2.311H22.663z M22.663,43.669
			c-0.889,0.135-1.589,0.491-2.101,1.066c-0.513,0.576-0.769,1.257-0.769,2.044c0,0.779,0.218,1.43,0.653,1.955
			c0.437,0.525,1.175,0.944,2.216,1.257V43.669z M24.009,59.462c0.889-0.11,1.623-0.495,2.202-1.155c0.58-0.66,0.87-1.477,0.87-2.45
			c0-0.829-0.205-1.496-0.616-1.999c-0.41-0.504-1.229-0.955-2.456-1.353V59.462z"/>
		<path fill="#FFFFFF" d="M30.58,44.825v-2.196h12.048v1.777c-1.185,1.261-2.359,2.937-3.522,5.027
			c-1.164,2.09-2.063,4.24-2.698,6.449c-0.457,1.558-0.749,3.263-0.876,5.116h-2.349c0.025-1.464,0.313-3.233,0.863-5.307
			s1.339-4.073,2.368-5.999c1.027-1.925,2.122-3.548,3.281-4.869H30.58z"/>
		<path fill="#FFFFFF" d="M43.601,56.085l2.285-0.305c0.263,1.295,0.709,2.228,1.339,2.8c0.631,0.57,1.399,0.856,2.305,0.856
			c1.075,0,1.982-0.372,2.723-1.117c0.741-0.745,1.111-1.667,1.111-2.768c0-1.05-0.343-1.915-1.028-2.596s-1.558-1.022-2.615-1.022
			c-0.432,0-0.969,0.084-1.612,0.254l0.254-2.006c0.152,0.017,0.275,0.025,0.368,0.025c0.974,0,1.85-0.254,2.628-0.762
			s1.168-1.291,1.168-2.349c0-0.838-0.283-1.532-0.851-2.082s-1.299-0.825-2.196-0.825c-0.889,0-1.629,0.279-2.222,0.838
			s-0.974,1.396-1.143,2.514l-2.285-0.406c0.279-1.532,0.914-2.719,1.904-3.561s2.222-1.263,3.694-1.263
			c1.016,0,1.951,0.218,2.806,0.654s1.509,1.03,1.962,1.784c0.452,0.753,0.679,1.553,0.679,2.399c0,0.804-0.216,1.536-0.647,2.196
			s-1.07,1.185-1.917,1.574c1.101,0.254,1.955,0.781,2.564,1.581c0.609,0.8,0.914,1.8,0.914,3.002c0,1.625-0.593,3.003-1.777,4.132
			c-1.185,1.131-2.683,1.695-4.494,1.695c-1.634,0-2.989-0.486-4.069-1.46C44.369,58.895,43.753,57.634,43.601,56.085z"/>
		<path fill="#FFFFFF" d="M56.747,51.82c0-2.201,0.227-3.972,0.679-5.313c0.453-1.341,1.126-2.376,2.02-3.104
			c0.893-0.728,2.016-1.092,3.37-1.092c0.999,0,1.875,0.201,2.628,0.603s1.375,0.982,1.866,1.739s0.876,1.68,1.155,2.768
			s0.419,2.554,0.419,4.399c0,2.184-0.225,3.946-0.673,5.288c-0.448,1.341-1.119,2.378-2.012,3.109
			c-0.894,0.732-2.021,1.099-3.384,1.099c-1.794,0-3.203-0.644-4.228-1.93C57.36,57.837,56.747,55.315,56.747,51.82z M59.096,51.82
			c0,3.056,0.357,5.089,1.072,6.101c0.716,1.011,1.598,1.517,2.647,1.517s1.932-0.508,2.647-1.523
			c0.715-1.016,1.072-3.047,1.072-6.094c0-3.064-0.357-5.099-1.072-6.106c-0.716-1.007-1.606-1.511-2.673-1.511
			c-1.05,0-1.888,0.444-2.514,1.333C59.489,46.67,59.096,48.765,59.096,51.82z"/>
	</g>
</g>
<g id="_x30_8" display="none">
	<circle display="inline" fill="#9ECAE2" cx="42.519" cy="42.521" r="42.519"/>
	<g display="inline">
		<path fill="#FFFFFF" d="M25.194,55.264l5.476-0.506c0.464,2.575,1.35,4.442,2.658,5.602c1.309,1.161,2.985,1.741,5.032,1.741
			c1.751,0,3.286-0.4,4.605-1.203c1.318-0.802,2.399-1.872,3.244-3.212c0.844-1.34,1.551-3.149,2.12-5.428
			c0.57-2.279,0.854-4.6,0.854-6.963c0-0.253-0.011-0.633-0.031-1.139c-1.14,1.815-2.696,3.287-4.669,4.415
			c-1.973,1.129-4.109,1.693-6.408,1.693c-3.841,0-7.09-1.393-9.749-4.178c-2.658-2.785-3.987-6.457-3.987-11.014
			c0-4.705,1.387-8.493,4.162-11.362c2.774-2.869,6.251-4.304,10.429-4.304c3.017,0,5.775,0.813,8.276,2.437
			c2.5,1.625,4.399,3.94,5.696,6.947c1.298,3.007,1.947,7.359,1.947,13.056c0,5.93-0.645,10.65-1.931,14.164
			c-1.288,3.513-3.202,6.188-5.745,8.023c-2.543,1.836-5.522,2.753-8.94,2.753c-3.63,0-6.595-1.007-8.895-3.022
			C27.04,61.748,25.658,58.915,25.194,55.264z M48.521,34.787c0-3.271-0.871-5.866-2.611-7.786c-1.741-1.92-3.835-2.88-6.282-2.88
			c-2.532,0-4.737,1.034-6.615,3.102s-2.816,4.748-2.816,8.039c0,2.954,0.891,5.354,2.674,7.2c1.783,1.847,3.982,2.77,6.6,2.77
			c2.637,0,4.805-0.923,6.504-2.77C47.671,40.616,48.521,38.058,48.521,34.787z"/>
	</g>
	<g display="inline">
		<path fill="#FFFFFF" d="M64.187,56.225c-0.846,0.419-1.771,0.834-2.775,1.247v7.1c0,0.527-0.151,0.921-0.455,1.182
			c-0.304,0.26-0.863,0.391-1.681,0.391h-1.225l-0.26-1.106c0.679,0.029,1.337,0.043,1.973,0.043c0.325,0,0.487-0.163,0.487-0.488
			v-6.656l-2.926,0.998l-0.293-1.041c1.395-0.434,2.468-0.813,3.219-1.138v-5.019h-3.132v-1.106h3.132v-3.935h1.16v3.935h2.775
			v1.106h-2.775v4.574c1.063-0.434,1.973-0.856,2.731-1.269L64.187,56.225z M76.392,55.141H72.89v10.958h-1.138V55.141h-4.997
			c0,2.5-0.257,4.587-0.77,6.26s-1.29,3.239-2.33,4.699l-0.954-0.705c1.922-2.536,2.883-5.821,2.883-9.853v-7.067
			c3.888-0.167,7.101-0.705,9.637-1.615l0.39,0.997c-2.355,0.925-5.314,1.449-8.877,1.572v4.596h9.658V55.141z"/>
	</g>
</g>
<path id="_x30_9" display="none" fill="#9ECAE2" d="M63.868,53.81l5.367,28.32l-26.35-13.077l-26.012,13.72l4.634-28.444
	L0.068,34.485l29.22-4.496L42.042,4.004l13.426,25.663l29.323,3.783L63.868,53.81z"/>
<g>
</g>
<g>
</g>
<g>
</g>
<g>
</g>
<g>
</g>
<g>
</g>
</svg>
