<?xml version="1.0" encoding="utf-8"?>
<!-- Generator: Adobe Illustrator 16.0.0, SVG Export Plug-In . SVG Version: 6.00 Build 0)  -->
<!DOCTYPE svg PUBLIC "-//W3C//DTD SVG 1.1//EN" "http://www.w3.org/Graphics/SVG/1.1/DTD/svg11.dtd">
<svg version="1.1" id="圖層_1" xmlns="http://www.w3.org/2000/svg" xmlns:xlink="http://www.w3.org/1999/xlink" x="0px" y="0px"
	 width="119.012px" height="102.98px" viewBox="0 0 119.012 102.98" enable-background="new 0 0 119.012 102.98"
	 xml:space="preserve">
<path display="none" fill="#9ECAE2" d="M113.432,6.976H5.231C1.988,6.976,0,9.397,0,12.609v77.419c0,3.217,1.988,5.977,5.231,5.977
	H20.17h93.262c3.244,0,5.58-2.76,5.58-5.977V12.609C119.012,9.397,116.676,6.976,113.432,6.976z M112.482,19.502v64.312
	L79.697,46.383l32.676-27.972C112.445,18.764,112.482,19.128,112.482,19.502z M106.908,90.07H11.974
	c-0.755,0-1.476-0.152-2.133-0.425l33.446-38.183l12.698,10.868c0.728,0.635,1.636,0.946,2.542,0.946
	c0.906,0,1.812-0.312,2.544-0.945l12.695-10.868l33.781,38.565C107.338,90.054,107.123,90.07,106.908,90.07z M37.346,46.376
	L6.399,81.711V19.879L37.346,46.376z M58.526,54.231L11.507,13.971c0.155-0.014,0.31-0.023,0.467-0.023h93.6L58.526,54.231z"/>
<path display="none" fill="#9ECAE2" d="M113.335,0H5.32C2.021,0,0,2.47,0,5.75v71.017c0,3.283,2.021,6.099,5.32,6.099h46.845v8.854
	H35.609c-5.261,0-9.512,4.193-9.512,9.383v1.877h64.411v-1.877c0-5.189-4.281-9.383-9.542-9.383H64.41v-8.854h48.925
	c3.3,0,5.677-2.815,5.677-6.099V5.75C119.012,2.47,116.635,0,113.335,0z M112.372,71.139c0,3.131-2.538,5.67-5.669,5.67H12.176
	c-3.132,0-5.669-2.539-5.669-5.67V12.785c0-3.131,2.538-5.669,5.669-5.669h94.527c3.131,0,5.669,2.538,5.669,5.669V71.139z"/>
<path display="none" fill="#9ECAE2" d="M100.773,73.269c-2.021-2.418-4.569-3.806-6.992-3.806c-1.858,0-3.386,0.815-4.182,2.205
	c0.512-2.012,1.211-4.171,1.875-6.225c0.832-2.576,1.692-5.237,2.308-7.843c5.921-7.435,6.003-21.612,0.178-34.586
	C87.491,8.605,75.758,0.002,62.573,0.002c-4.083,0-8.335,0.802-12.637,2.383C38.068,6.747,30.018,13.531,26.011,22.549
	c-5.705,12.837-1.461,26.576,0.628,31.886l0.017,0.041c0.107,0.492,0.317,1.756,0.487,2.779l0.048,0.285
	c0.321,1.953,0.516,3.131,0.743,3.875c0.375,1.658,0.758,3.183,1.116,4.605c1.38,5.504,2.291,9.141,0.768,12.621
	c-0.787,1.802-1.438,2.344-1.624,2.483c-0.089-0.088-0.231-0.267-0.362-0.57c-0.334-0.776-0.387-1.942,0.283-2.664
	c2.467-2.663,1.88-4.935,1.514-5.786c-0.71-1.654-2.354-2.643-4.4-2.643c-2.422,0-4.969,1.388-6.988,3.807
	c-3.293,3.944-3.662,12.734-0.806,19.197c2.659,6.021,7.582,10.301,13.859,10.494c0.351,0.012,0.696,0.017,1.036,0.017
	c12.07,0,19.71-7.647,20.434-19.019l0.096-1.521l-1.296-0.784c-7.351-4.45-15.292-14.103-16.746-25.78
	c13.781-4.729,32.227-15.577,36.452-18.111c6.55,0.777,10.49,7.852,12.66,13.752c0.005,0.198,0.008,0.396,0.008,0.595
	c0,13.694-8.526,24.942-16.45,29.598l-1.329,0.781l0.101,1.547c0.75,11.323,8.386,18.084,20.427,18.085
	c0.342,0,0.687-0.005,1.036-0.017c6.275-0.193,11.196-3.616,13.857-9.637C104.434,86.004,104.065,77.213,100.773,73.269z
	 M22.041,76.493c0.796-0.952,1.592-1.515,2.244-1.795c-2.007,2.366-1.97,5.615-1.013,7.844c0.961,2.241,2.829,3.634,4.876,3.634
	c1.736,0,4.225-0.957,6.218-5.515c1.258-2.878,1.432-5.604,1.031-8.669c3.178,5.23,7.503,9.885,12.264,13.092
	c-1.093,8.025-6.827,12.33-16.214,12.016c-5.471-0.169-8.172-3.721-9.474-6.67C19.718,85.328,20.158,78.749,22.041,76.493z
	 M62.573,5.01c11.178,0,21.219,7.502,26.86,20.067c5.134,11.437,5.215,23.939,0.193,29.729l-0.416,0.479l-0.138,0.621
	c-0.205,0.919-0.45,1.862-0.722,2.818c0.359-2.115,0.554-4.322,0.554-6.616c0-0.383-0.011-0.768-0.021-1.147l-0.012-0.402
	l-0.136-0.375c-2.766-7.717-8.124-17.014-17.943-17.483l-0.754-0.036l-0.648,0.393C69.161,33.2,46.012,47.207,31.43,51.716
	l-0.455,0.141c-1.857-4.999-5.144-16.656-0.429-27.263c3.438-7.735,10.534-13.625,21.091-17.506C55.39,5.708,59.07,5.01,62.573,5.01
	z M85.247,68.712c-1.309,4.541-2.024,8.703-0.604,11.949c1.995,4.558,4.484,5.515,6.222,5.515c2.046,0,3.916-1.394,4.877-3.637
	c0.955-2.229,0.992-5.477-1.013-7.839c0.652,0.282,1.448,0.842,2.243,1.792c1.882,2.257,2.321,8.836,0.067,13.938
	c-1.304,2.949-4.006,6.501-9.474,6.67c-9.305,0.298-15.078-3.967-16.199-11.928C76.359,81.868,81.773,76.215,85.247,68.712z
	 M90.898,77.893c0.67,0.721,0.616,1.886,0.282,2.661c-0.124,0.291-0.261,0.467-0.351,0.56c-0.248-0.168-0.88-0.735-1.64-2.473
	c-0.469-1.072-0.439-2.648-0.13-4.48C89.144,75.195,89.598,76.49,90.898,77.893z"/>
<path fill="#9ECAE2" d="M59.506,0.002c-26.507,0-47.995,21.488-47.995,47.994c0,26.507,21.488,47.994,47.995,47.994
	c26.505,0,47.994-21.487,47.994-47.994C107.5,21.49,86.012,0.002,59.506,0.002z M59.506,85.562
	c-20.748,0-37.567-16.817-37.567-37.565c0-20.747,16.819-37.565,37.567-37.565S97.072,27.25,97.072,47.996
	C97.072,68.744,80.254,85.562,59.506,85.562z"/>
<g>
	<polygon fill="#9ECAE2" points="80.887,87.106 96.761,102.98 98.796,93.707 108.071,91.675 92.194,75.798 	"/>
	<polygon fill="#9ECAE2" points="38.126,87.106 22.252,102.98 20.217,93.707 10.941,91.675 26.818,75.798 	"/>
</g>
<g>
	<path fill="#9ECAE2" d="M28.784,54.408v-15.65h10.729v2.647h-7.569v3.705h6.533v2.647h-6.533v6.651H28.784z"/>
	<path fill="#9ECAE2" d="M44.968,54.408h-3V43.071h2.786v1.612c0.477-0.761,0.906-1.263,1.286-1.505
		c0.381-0.242,0.813-0.363,1.297-0.363c0.683,0,1.341,0.189,1.975,0.566l-0.929,2.616c-0.505-0.328-0.975-0.491-1.409-0.491
		c-0.42,0-0.776,0.116-1.068,0.347c-0.292,0.231-0.521,0.65-0.688,1.254c-0.167,0.605-0.251,1.872-0.251,3.801V54.408z"/>
	<path fill="#9ECAE2" d="M50.605,41.534v-2.776h3v2.776H50.605z M50.605,54.408V43.071h3v11.337H50.605z"/>
	<path fill="#9ECAE2" d="M63.245,50.8l2.989,0.502c-0.385,1.096-0.991,1.931-1.82,2.503c-0.829,0.573-1.866,0.859-3.112,0.859
		c-1.971,0-3.43-0.644-4.376-1.932c-0.748-1.032-1.121-2.334-1.121-3.908c0-1.879,0.491-3.35,1.473-4.414
		c0.982-1.064,2.224-1.596,3.726-1.596c1.688,0,3.018,0.557,3.993,1.671c0.975,1.114,1.441,2.82,1.398,5.119h-7.516
		c0.021,0.89,0.263,1.582,0.726,2.077c0.462,0.495,1.039,0.742,1.729,0.742c0.47,0,0.865-0.128,1.186-0.384
		C62.84,51.782,63.081,51.369,63.245,50.8z M63.416,47.768c-0.021-0.868-0.246-1.528-0.673-1.98
		c-0.427-0.452-0.946-0.678-1.559-0.678c-0.654,0-1.195,0.238-1.623,0.715c-0.427,0.477-0.637,1.125-0.63,1.943H63.416z"/>
	<path fill="#9ECAE2" d="M79.151,54.408h-3v-5.786c0-1.224-0.063-2.016-0.192-2.375c-0.128-0.359-0.336-0.639-0.624-0.838
		s-0.636-0.299-1.041-0.299c-0.52,0-0.985,0.143-1.398,0.427c-0.413,0.285-0.695,0.662-0.849,1.132s-0.229,1.338-0.229,2.605v5.135
		h-3V43.071h2.786v1.666c0.989-1.281,2.235-1.922,3.736-1.922c0.662,0,1.267,0.12,1.815,0.358c0.548,0.238,0.962,0.542,1.243,0.913
		s0.477,0.79,0.588,1.26c0.109,0.47,0.165,1.142,0.165,2.018V54.408z"/>
	<path fill="#9ECAE2" d="M92.592,54.408h-2.786v-1.665c-0.463,0.647-1.009,1.13-1.639,1.446s-1.265,0.475-1.905,0.475
		c-1.303,0-2.418-0.524-3.347-1.574s-1.394-2.514-1.394-4.393c0-1.921,0.452-3.382,1.356-4.382c0.903-1,2.046-1.5,3.427-1.5
		c1.267,0,2.362,0.527,3.288,1.58v-5.637h2.999V54.408z M84.586,48.494c0,1.21,0.167,2.085,0.501,2.626
		c0.484,0.783,1.16,1.174,2.028,1.174c0.69,0,1.278-0.293,1.762-0.881c0.484-0.587,0.727-1.464,0.727-2.631
		c0-1.302-0.235-2.24-0.705-2.813s-1.071-0.859-1.804-0.859c-0.712,0-1.309,0.283-1.788,0.849
		C84.826,46.524,84.586,47.37,84.586,48.494z"/>
</g>
<g>
</g>
<g>
</g>
<g>
</g>
<g>
</g>
<g>
</g>
<g>
</g>
</svg>
