<?xml version="1.0" encoding="utf-8"?>
<!-- Generator: Adobe Illustrator 18.0.0, SVG Export Plug-In . SVG Version: 6.00 Build 0)  -->
<!DOCTYPE svg PUBLIC "-//W3C//DTD SVG 1.1//EN" "http://www.w3.org/Graphics/SVG/1.1/DTD/svg11.dtd">
<svg version="1.1" id="Layer_1" xmlns="http://www.w3.org/2000/svg" xmlns:xlink="http://www.w3.org/1999/xlink" x="0px" y="0px"
	 viewBox="668 312.3 45 45" enable-background="new 668 312.3 45 45" xml:space="preserve">
<g display="none">
	<path display="inline" fill="#FFFFFF" d="M709.7,325.8l-3.8,16.4h-23.6l-7-19.3l-4.5-1.1l0.6-2.3l5.7,1.3l2.2,6.1v-1.2h3.6v3.6
		h-2.7l0.9,2.4h1.9v3.6h-0.5l1.6,4.3h1.3v-1.9h3.6v1.9h2.4v-1.9h3.6v1.9h2.4v-1.9h3.6v1.9h2.4v-1.9h1l0.6-2.4h-1.5v-3.6h2.4l0.5-2.4
		h-2.9v-3.6h3.6v0.6l0.3-1.2L709.7,325.8z M685.1,345.1c-0.6,0.6-0.9,1.3-0.9,2.1c0,0.9,0.3,1.5,0.9,2.1c0.6,0.6,1.3,0.9,2.1,0.9
		c0.9,0,1.5-0.3,2.1-0.9c0.6-0.6,0.9-1.3,0.9-2.1c0-0.8-0.3-1.5-0.9-2.1c-0.6-0.6-1.3-0.9-2.1-0.9
		C686.4,344.2,685.7,344.5,685.1,345.1z M689,329.4h-3.6v-3.6h3.6V329.4z M689,335.5h-3.6v-3.6h3.6V335.5z M695,329.4h-3.6v-3.6h3.6
		V329.4z M695,335.5h-3.6v-3.6h3.6V335.5z M698.1,345.1c-0.6,0.6-0.9,1.3-0.9,2.1c0,0.9,0.3,1.5,0.9,2.1c0.6,0.6,1.3,0.9,2.1,0.9
		c0.9,0,1.5-0.3,2.1-0.9s0.9-1.3,0.9-2.1c0-0.8-0.3-1.5-0.9-2.1c-0.6-0.6-1.3-0.9-2.1-0.9C699.5,344.2,698.7,344.5,698.1,345.1z
		 M701,329.4h-3.6v-3.6h3.6V329.4z M701,335.5h-3.6v-3.6h3.6V335.5z"/>
</g>
<g>
	<path fill="#088FCC" d="M709.7,325.8l-3.8,16.4h-23.6l-7-19.3l-4.5-1.1l0.6-2.3l5.7,1.3l2.2,6.1v-1.2h3.6v3.6h-2.7l0.9,2.4h1.9v3.6
		h-0.5l1.6,4.3h1.3v-1.9h3.6v1.9h2.4v-1.9h3.6v1.9h2.4v-1.9h3.6v1.9h2.4v-1.9h1l0.6-2.4h-1.5v-3.6h2.4l0.5-2.4h-2.9v-3.6h3.6v0.6
		l0.3-1.2L709.7,325.8z M685.1,345.1c-0.6,0.6-0.9,1.3-0.9,2.1c0,0.9,0.3,1.5,0.9,2.1c0.6,0.6,1.3,0.9,2.1,0.9
		c0.9,0,1.5-0.3,2.1-0.9c0.6-0.6,0.9-1.3,0.9-2.1c0-0.8-0.3-1.5-0.9-2.1c-0.6-0.6-1.3-0.9-2.1-0.9
		C686.4,344.2,685.7,344.5,685.1,345.1z M689,329.4h-3.6v-3.6h3.6V329.4z M689,335.5h-3.6v-3.6h3.6V335.5z M695,329.4h-3.6v-3.6h3.6
		V329.4z M695,335.5h-3.6v-3.6h3.6V335.5z M698.1,345.1c-0.6,0.6-0.9,1.3-0.9,2.1c0,0.9,0.3,1.5,0.9,2.1c0.6,0.6,1.3,0.9,2.1,0.9
		c0.9,0,1.5-0.3,2.1-0.9s0.9-1.3,0.9-2.1c0-0.8-0.3-1.5-0.9-2.1c-0.6-0.6-1.3-0.9-2.1-0.9C699.5,344.2,698.7,344.5,698.1,345.1z
		 M701,329.4h-3.6v-3.6h3.6V329.4z M701,335.5h-3.6v-3.6h3.6V335.5z"/>
</g>
<path display="none" fill="#FFFFFF" d="M643.2,393.1l-0.1,0.2l-6.3,6.5l6.4,6.7v-1.1c-0.3-0.3-5.1-5.3-5.3-5.5
	c0.3-0.3,5.1-5.3,5.3-5.5V393.1z"/>
</svg>
