<?xml version="1.0" encoding="utf-8"?>
<!-- Generator: Adobe Illustrator 16.0.0, SVG Export Plug-In . SVG Version: 6.00 Build 0)  -->
<!DOCTYPE svg PUBLIC "-//W3C//DTD SVG 1.1//EN" "http://www.w3.org/Graphics/SVG/1.1/DTD/svg11.dtd">
<svg version="1.1" id="圖層_1" xmlns="http://www.w3.org/2000/svg" xmlns:xlink="http://www.w3.org/1999/xlink" x="0px" y="0px"
	 width="914.798px" height="505.473px" viewBox="0 0 914.798 505.473" enable-background="new 0 0 914.798 505.473"
	 xml:space="preserve">
<g>
	<polygon points="8.808,366.129 26.446,366.129 26.446,372.211 3.135,372.211 3.135,325.117 8.808,325.117 	"/>
	<path d="M65.968,372.211H60.24l-5.21-13.908H38.389l-4.873,13.908h-5.777l16.777-47.408h3.98L65.968,372.211z M40.607,352.219
		h12.165l-6.325-17.039L40.607,352.219z"/>
	<path d="M71.082,325.117H82.46c8.403,0,11.985,6.053,11.985,12.02c0,4.852-1.869,7.992-5.987,10.021v0.146
		c5.904,1.281,9.444,5.988,9.444,12.354c0,5.738-3.604,12.553-13.394,12.553H71.082V325.117z M76.671,345.287h3.772
		c5.494,0,8.246-2.545,8.246-7.545c0-3.551-1.68-6.572-6.871-6.572h-5.147V345.287z M76.671,366.129h7.049
		c6.629,0,8.414-3.947,8.414-7.436c0-4.328-2.762-7.336-8.634-7.336h-6.829V366.129z"/>
	<path d="M123.346,324.467c12.953,0,21.096,11.092,21.096,24.16c0,12.734-7.911,24.193-21.169,24.193
		c-12.733,0-20.875-11.389-20.875-24.193C102.397,335.58,110.751,324.467,123.346,324.467 M123.346,366.592
		c8.792,0,15.296-7.648,15.296-17.965c0-10.336-6.504-17.973-15.296-17.973c-8.655,0-15.117,7.637-15.117,17.973
		C108.229,358.943,114.69,366.592,123.346,366.592"/>
	<path d="M162.048,325.086c7.9,0,12.889,5.031,12.889,13.213c0,5.455-2.352,9.533-6.575,11.502c3.571,2.869,5.693,7.211,8.719,13.07
		c1.67,3.258,2.605,4.865,5.359,9.34h-6.724l-5.158-9.719c-5.202-9.631-7.534-10.756-10.39-10.756h-2.334v20.475h-5.599v-47.125
		H162.048z M157.834,345.717h3.613c6.01,0,7.744-3.805,7.671-7.74c-0.054-4.436-2.279-7.105-7.671-7.105h-3.613V345.717z"/>
	<path d="M221.454,372.211h-5.757l-5.272-13.908h-16.578l-4.927,13.908h-5.692l16.765-47.408h3.941L221.454,372.211z
		 M196.096,352.219h12.122l-6.322-17.039L196.096,352.219z"/>
	<polygon points="250.155,331.17 236.625,331.17 236.625,372.211 230.982,372.211 230.982,331.17 217.504,331.17 217.504,325.086 
		250.155,325.086 	"/>
	<path d="M271.733,324.467c12.92,0,21.073,11.092,21.073,24.16c0,12.734-7.943,24.193-21.115,24.193
		c-12.849,0-20.927-11.389-20.927-24.193C250.765,335.58,259.084,324.467,271.733,324.467 M271.733,366.592
		c8.804,0,15.275-7.648,15.275-17.965c0-10.336-6.472-17.973-15.275-17.973c-8.709,0-15.171,7.637-15.171,17.973
		C256.563,358.943,263.024,366.592,271.733,366.592"/>
	<rect x="300.454" y="325.117" width="5.59" height="47.094"/>
	<path d="M325.498,325.086c7.964,0,12.871,5.031,12.871,13.213c0,5.455-2.345,9.533-6.536,11.502
		c3.552,2.869,5.727,7.211,8.751,13.07c1.617,3.258,2.626,4.865,5.243,9.34h-6.608l-5.21-9.719
		c-5.128-9.631-7.5-10.756-10.423-10.756h-2.278v20.475h-5.601v-47.125H325.498z M321.308,345.717h3.623
		c5.978,0,7.669-3.805,7.669-7.74c-0.073-4.436-2.247-7.105-7.669-7.105h-3.623V345.717z"/>
	<polygon points="373.141,331.17 356.595,331.17 356.595,345.369 372.604,345.369 372.604,351.484 356.595,351.484 356.595,366.129 
		373.676,366.129 373.676,372.211 350.923,372.211 350.923,325.086 373.141,325.086 	"/>
	<path d="M397.208,325.117h15.201c14.425,0,20.843,12.459,20.843,23.469c0,12.143-7.901,23.625-20.801,23.625h-15.243V325.117z
		 M402.828,366.129h8.961c12.722,0,15.59-11.664,15.59-17.543c0-9.438-4.959-17.416-15.884-17.416h-8.667V366.129z"/>
	<polygon points="463.116,331.17 446.543,331.17 446.543,345.369 462.563,345.369 462.563,351.484 446.543,351.484 446.543,366.129 
		463.622,366.129 463.622,372.211 440.92,372.211 440.92,325.086 463.116,325.086 	"/>
	<path d="M480.347,325.086c7.856,0,12.794,5.031,12.794,13.213c0,5.455-2.288,9.533-6.459,11.502
		c3.528,2.869,5.704,7.211,8.668,13.07c1.681,3.258,2.635,4.865,5.364,9.34h-6.764l-5.136-9.719
		c-5.107-9.631-7.514-10.756-10.421-10.756h-2.354v20.475h-5.567v-47.125H480.347z M476.04,345.717h3.739
		c5.943,0,7.688-3.805,7.646-7.74c-0.083-4.436-2.289-7.105-7.646-7.105h-3.739V345.717z"/>
	<polygon points="542.118,372.211 536.527,372.211 536.527,335.58 536.383,335.58 524.342,353.797 523.417,353.797 511.316,335.58 
		511.231,335.58 511.231,372.211 505.685,372.211 505.685,325.086 510.938,325.086 523.859,344.469 536.895,325.086 
		542.118,325.086 	"/>
	<path d="M585.23,372.211h-5.704l-5.199-13.908h-16.62l-5,13.908h-5.671l16.764-47.408h3.993L585.23,372.211z M559.85,352.219
		h12.103l-6.198-17.039L559.85,352.219z"/>
	<polygon points="613.996,331.17 600.401,331.17 600.401,372.211 594.801,372.211 594.801,331.17 581.28,331.17 581.28,325.086 
		613.996,325.086 	"/>
	<path d="M635.553,324.467c12.87,0,21.055,11.092,21.055,24.16c0,12.734-7.967,24.193-21.184,24.193
		c-12.721,0-20.884-11.389-20.884-24.193C614.54,335.58,622.903,324.467,635.553,324.467 M635.553,366.592
		c8.76,0,15.23-7.648,15.23-17.965c0-10.336-6.471-17.973-15.23-17.973c-8.722,0-15.171,7.637-15.171,17.973
		C620.382,358.943,626.831,366.592,635.553,366.592"/>
	<polygon points="669.829,366.129 687.428,366.129 687.428,372.211 664.18,372.211 664.18,325.117 669.829,325.117 	"/>
	<path d="M712.387,324.467c12.9,0,21.074,11.092,21.074,24.16c0,12.734-7.942,24.193-21.221,24.193
		c-12.724,0-20.863-11.389-20.863-24.193C691.377,335.58,699.688,324.467,712.387,324.467 M712.387,366.592
		c8.793,0,15.21-7.648,15.21-17.965c0-10.336-6.417-17.973-15.21-17.973c-8.72,0-15.191,7.637-15.191,17.973
		C697.195,358.943,703.667,366.592,712.387,366.592"/>
	<path d="M775.419,368.922c-5.234,2.799-9.52,3.898-14.941,3.898c-11.996,0-20.828-10.084-20.828-23.898
		c0-13.867,9.054-24.445,20.988-24.445c4.536,0,7.785,0.883,13.981,4.023v6.777c-4.624-2.961-9.445-4.623-14.142-4.623
		c-8.443,0-14.988,7.855-14.988,18.035c0,10.529,6.523,17.914,15.81,17.914c2.964,0,5.757-0.811,8.446-1.861v-9.75h-7.534v-5.984
		h13.208V368.922z"/>
	<rect x="784.348" y="325.117" width="5.652" height="47.094"/>
	<path d="M823.573,372.137v0.105c6.893,3.518,10.718,4.729,14.606,3.342l0.144,0.176l-5.043,6.064
		c-7.521-0.693-13.761-4.842-19.248-9.613c-9.6-2.217-16.324-11.818-16.324-23.584c0-14.225,8.901-24.16,21.495-24.16
		c11.734,0,20.654,10.439,20.654,24.287c0,11.41-6.849,21.24-16.284,23.457V372.137z M803.446,348.689
		c0,9.539,5.282,17.902,15.714,17.902c8.667,0,14.896-8.162,14.896-17.693c0-10.344-6.426-18.244-15.064-18.244
		C807.289,330.654,803.446,341.609,803.446,348.689"/>
	<path d="M880.196,353.65c0,11.596-5.715,19.17-17.396,19.17c-8.217,0-16.282-5.557-16.282-18.455v-29.279h5.714v27.848
		c0,5.324,0.507,7.545,2.279,9.688c2.238,2.666,5.136,3.971,8.457,3.971c4.32,0,7.334-1.703,9.181-3.826
		c1.922-2.373,2.458-5.775,2.458-10.232v-27.447h5.589V353.65z"/>
	<polygon points="910.915,331.17 894.359,331.17 894.359,345.369 910.315,345.369 910.315,351.484 894.359,351.484 894.359,366.129 
		911.44,366.129 911.44,372.211 888.688,372.211 888.688,325.086 910.915,325.086 	"/>
	<polygon points="14.313,287.508 49.946,287.508 49.946,297.645 2.987,297.645 2.987,218.846 14.313,218.846 	"/>
	<path d="M132.748,297.645H121.15l-10.484-23.229H77.165l-9.907,23.229H55.649l33.942-79.389h7.87L132.748,297.645z M81.546,264.227
		h24.499l-12.724-28.572L81.546,264.227z"/>
	<path d="M178.32,218.846c15.957,0,25.886,8.404,25.886,22.092c0,9.109-4.729,15.873-13.237,19.279
		c7.248,4.727,11.65,12.004,17.605,21.809c3.384,5.482,5.327,8.129,10.737,15.619h-13.487l-10.442-16.197
		c-10.402-16.146-15.139-18.027-20.907-18.027h-4.727v34.225h-11.325v-78.799H178.32z M169.748,253.271h7.269
		c12.146,0,15.526-6.229,15.507-12.84c-0.085-7.402-4.56-11.93-15.507-11.93h-7.269V253.271z"/>
	<path d="M262.468,217.764c25.989,0,42.399,18.48,42.399,40.424c0,21.328-15.99,40.467-42.673,40.467
		c-25.728,0-42.021-19.027-42.021-40.467C220.174,236.379,236.875,217.764,262.468,217.764 M262.468,288.262
		c17.648,0,30.759-12.814,30.759-30.074c0-17.25-13.11-29.982-30.759-29.982c-17.606,0-30.622,12.732-30.622,29.982
		C231.846,275.447,244.861,288.262,262.468,288.262"/>
	<path d="M384.644,236.379c-9.718-5.682-18.058-8.203-27.229-8.203c-17.996,0-31.39,12.877-31.39,30.115
		c0,17.744,12.932,30.014,31.883,30.014c8.92,0,18.585-3.16,27.535-8.949v12.428c-7.713,4.004-16.168,6.922-28.533,6.922
		c-29.593,0-42.567-22.814-42.567-39.311c0-24.037,18.153-41.609,43.262-41.609c8.046,0,16.273,1.922,27.04,6.48V236.379z"/>
	<polygon points="465.974,297.645 454.672,297.645 454.672,263.369 410.55,263.369 410.55,297.645 399.185,297.645 399.185,218.846 
		410.55,218.846 410.55,253.176 454.672,253.176 454.672,218.846 465.974,218.846 	"/>
	<polygon points="528.291,229.016 494.875,229.016 494.875,252.746 527.084,252.746 527.084,262.969 494.875,262.969 
		494.875,287.508 529.365,287.508 529.365,297.645 483.593,297.645 483.593,218.846 528.291,218.846 	"/>
	<rect x="536.958" y="266.748" width="28.081" height="10.76"/>
	<path d="M604.476,218.846c17.21,0,25.045,10.146,25.045,22.607c0,12.346-8.257,22.041-26.566,22.041h-11.785v34.15h-11.274v-78.799
		H604.476z M591.169,253.354h12.824c8.403,0,13.859-4.486,13.859-12.344c0-5.777-3.081-12.018-13.377-12.018h-13.307V253.354z"/>
	<path d="M678.286,217.764c25.948,0,42.34,18.48,42.34,40.424c0,21.328-16.003,40.467-42.654,40.467
		c-25.76,0-42.063-19.027-42.063-40.467C635.909,236.379,652.716,217.764,678.286,217.764 M678.286,288.262
		c17.609,0,30.654-12.814,30.654-30.074c0-17.25-13.045-29.982-30.654-29.982c-17.649,0-30.698,12.732-30.698,29.982
		C647.588,275.447,660.637,288.262,678.286,288.262"/>
	<path d="M771.006,236.158c-6.661-6.346-13.121-8.176-18.476-8.176c-7.263,0-12.494,3.742-12.494,9.361
		c0,15.076,34.122,14.92,34.122,39.973c0,12.346-9.349,21.338-22.06,21.338c-8.574,0-15.527-2.279-22.063-7.178v-14.41
		c5.765,7.385,13.067,11.42,20.789,11.42c8.749,0,12.855-5.514,12.855-9.863c0-16.338-34.13-18.201-34.13-39.818
		c0-12.836,9.479-21.051,23.891-21.051c6.04,0,12.039,1.869,17.564,5.557V236.158z"/>
	<path d="M854.29,297.645h-11.577l-10.49-23.229h-33.547l-9.915,23.229H777.12l33.912-79.389h7.96L854.29,297.645z M803.078,264.227
		h24.521l-12.702-28.572L803.078,264.227z"/>
	<polygon points="899.905,218.846 913.594,218.846 884.313,256.012 884.313,297.645 872.992,297.645 872.992,255.908 
		843.744,218.846 857.371,218.846 878.538,245.908 	"/>
</g>
<rect x="377.676" fill="#00A0E9" width="150.226" height="194.315"/>
<rect x="334.009" y="-155.509" display="none" fill="#00A0E9" width="250.351" height="323.825"/>
<g>
	<path d="M15.563,450.506H4.385v-8.338h11.178v-27.021H3.996v-8.424h31.367v8.424H24.051v27.021h10.558v8.338H24.051v30.09
		c4.906-1.816,8.625-3.445,11.197-4.793l3.542,8.529c-2.585,1.482-6.913,3.242-12.933,5.41c-8.373,3.164-15.106,5.453-20.307,6.779
		L2,487.844l13.563-4.287V450.506z M63.329,479.986H39.42v-8.426h23.909v-10.768H40.155c-0.735,0-1.126-0.453-1.126-1.338v-51.516
		c0.033-0.777,0.412-1.217,1.126-1.217h55.257c0.852,0.104,1.221,0.482,1.221,1.217v51.516c0,0.885-0.369,1.338-1.221,1.338H71.924
		v10.768H96.82v8.426H71.924v12.92h29.015v8.342H34.514v-8.342h28.815V479.986z M63.329,415.146H47.887
		c-0.253,0-0.357,0.168-0.335,0.379v14.242h15.777V415.146z M63.329,438.195H47.552v13.73l0.335,0.465h15.442V438.195z
		 M71.924,429.768h16.125v-14.242l-0.368-0.379H71.924V429.768z M71.924,452.391h15.757l0.368-0.465v-13.73H71.924V452.391z"/>
	<path d="M293.667,432.689v-5.893h18.374v-3.078H291c-0.884,0-1.366,0.441-1.366,1.389v34.037
		c-0.082,17.857-2.185,32.713-6.146,44.498l-8.394-3.613c4.307-11.494,6.409-23.982,6.409-37.674v-44.076
		c0.063-1.432,0.746-2.186,2.099-2.186h28.953v-12.986h8.616v2.785h47.988v6.678h-47.988v3.523h45.655l6.197,3.76
		c-0.147,4.832-1.229,9.939-3.151,15.414l-8.006-1.986c1.398-3.596,2.187-6.412,2.375-8.449c0.306-0.807,0-1.197-0.819-1.113
		h-44.122v3.078h30.055v5.893h-29.508l0.607,0.84c0.853,0.656,1.83,1.01,2.879,1.156h27.229c0.643-0.146,1.377-0.375,2.02-0.879
		c0.388-0.16,1.091-2.418,2.362-6.664l6.356,2.732c-1.263,5.609-2.249,8.613-2.838,9.031c-1.827,1.947-3.519,2.904-4.916,2.904
		h-34.457c-1.703-0.18-3.384-0.957-5.042-2.564c-1.387-1.555-2.008-3.174-2.008-4.896v-1.66H293.667z M369.788,467.619h-74.166
		c-0.607,0-0.883-0.357-0.883-1.082v-21.678c0-0.74,0.275-1.033,0.883-1.033h74.166c0.673,0,1.072,0.293,1.072,1.033v21.678
		C370.86,467.262,370.461,467.619,369.788,467.619 M305.287,504.611h-8.153v-33.051c0-1.113,0.601-1.723,1.661-1.723h68.242
		c1.134,0,1.754,0.609,1.754,1.723v23.5c0,3.479-1.323,6.061-3.782,7.846c-4.191,2.953-11.671,3.322-22.638,0.969l-0.19-9.391
		c8.742,2.141,14.245,2.537,16.283,1.072c0.967-0.768,1.765-1.684,1.986-2.545h-55.163V504.611z M328.471,449.666h-25.41
		l-0.21,0.369v2.996h25.62V449.666z M328.471,458.406h-25.62v2.922l0.21,0.387h25.41V458.406z M360.607,479.043v-2.777
		c0-0.379-0.157-0.525-0.6-0.525h-54.174c-0.38,0.107-0.547,0.191-0.547,0.525v2.777H360.607z M360.607,484.482h-55.32v3.092h55.32
		V484.482z M336.644,453.031h26.055v-2.996l-0.315-0.369h-25.739V453.031z M336.644,461.715h25.739l0.315-0.387v-2.922h-26.055
		V461.715z"/>
	<path d="M611.032,438.824h-21.987v-6.346h21.987v-4.777h-13.806l-3.067,3.688l-5.936-4.479c2.721-2.604,4.885-5.775,6.577-9.641
		h-38.73c-0.527,0-0.78,0.273-0.78,0.838v3.742h30.927v6.344h-11.953v4.77h10.738v6.283h-10.738v5.381l12.397-1.66l1.019,7.539
		c-9.402,1.914-21.948,2.67-37.601,2.557l-0.818-7.648l16.853-0.328v-5.84h-11.295v-6.283h11.295v-4.77H551.51v-0.881h-4.352
		v-16.094c0.085-1.01,0.57-1.494,1.472-1.494h42.232v-5.713h8.992v5.713h38.322l6.725,3.416c-0.356,4.58-1.409,9.949-3.343,16.105
		l-7.678-2.449l2.303-8.32c0-0.756-0.317-1.207-0.96-1.207h-32.713l-1.649,4.16h31.938v6.271h-13.574v4.777h21.456v6.346h-21.456
		v6.725h9.961c0.882,0,1.292-0.463,1.292-1.26v-3.529h7.271v8.193c0,2.229-1.063,3.311-3.185,3.311h-38.541
		c-2.071,0-3.061-1.082-3.061-3.311v-8.193h7.271v3.529c0.05,0.797,0.503,1.26,1.103,1.26h9.696V438.824z M575.523,492.988
		l2.481,7.275c-11.181,3.936-20.72,5.418-28.522,4.348l-0.977-9.055c8.466,0.846,16.851,0,25.096-2.568h-15.599
		c-0.589,0-0.928-0.303-0.928-1.092v-35.348c0-0.621,0.339-0.936,0.928-0.936h74.164c0.736,0,1.05,0.314,1.05,0.936v35.348
		c0,0.789-0.313,1.092-1.05,1.092h-7.289c5.378,0.875,11.418,2.207,18.007,3.898l-2.204,8.586
		c-11.663-3.299-21.034-5.074-28.252-5.361l0.389-7.123H575.523z M625.043,466.203v-4.076l-0.282-0.271H565.42l-0.16,0.271v4.076
		H625.043z M625.043,472.516H565.26v3.889h59.783V472.516z M565.26,482.758v3.51l0.16,0.43h59.341l0.282-0.43v-3.51H565.26z"/>
	<path d="M855.679,422.314l2.289,2.697c-0.293,3.918-0.839,7.742-1.557,11.568c-4.589,20.104-14.274,37.793-29.099,53.162
		l-8.32-6.281c7.228-6.502,13.723-13.889,19.478-22.227c6.389-10.865,10.168-19.846,11.178-26.885c0.231-0.754,0.231-1.26,0-1.596
		c-0.564-0.459-1.404-0.65-2.521-0.779h-25.588v-9.66H855.679z M873.41,491.686c0,4.182-1.575,7.492-4.957,9.854
		c-4.603,3.27-13.406,2.525-26.494-2.16l0.609-10.021l9.979,3.328c5.229,1.336,8.762,1.188,10.422-0.307
		c0.757-0.543,1.113-1.658,1.113-3.232v-85.178h9.328v13.195l0.632,3.781c6.05,24.814,20.338,47.57,42.756,68.287l-8.321,5.963
		c-17.354-18.656-28.992-35.568-35.066-50.738V491.686z M913.154,419.787c-4.761,8.346-11.652,17.547-20.603,27.631l-6.978-6.029
		c9.353-10.582,16.138-19.604,20.319-27.08L913.154,419.787z"/>
</g>
</svg>
