<?xml version="1.0" encoding="utf-8"?>
<!-- Generator: Adobe Illustrator 16.0.0, SVG Export Plug-In . SVG Version: 6.00 Build 0)  -->
<!DOCTYPE svg PUBLIC "-//W3C//DTD SVG 1.1//EN" "http://www.w3.org/Graphics/SVG/1.1/DTD/svg11.dtd">
<svg version="1.1" id="圖層_1" xmlns="http://www.w3.org/2000/svg" xmlns:xlink="http://www.w3.org/1999/xlink" x="0px" y="0px"
	 width="82.323px" height="113px" viewBox="0 0 82.323 113" enable-background="new 0 0 82.323 113" xml:space="preserve">
<path fill="#008FCD" d="M41.162,112.527c3.173,0,6.138-4.266,8.008-6.841C61.142,89.235,82.323,57.838,82.323,41.43
	C82.323,18.547,63.897,0,41.162,0S0,18.547,0,41.43c0,16.408,21.18,47.806,33.15,64.257
	C35.027,108.264,38.004,112.527,41.162,112.527L41.162,112.527z M41.162,16.422c12.109,0,21.918,9.848,21.918,22.008
	c0,12.137-9.81,21.987-21.918,21.987c-12.111,0-21.921-9.85-21.921-21.987C19.24,38.429,19.597,16.422,41.162,16.422z"/>
</svg>
