<?xml version="1.0" encoding="utf-8"?>
<!-- Generator: Adobe Illustrator 15.0.0, SVG Export Plug-In  -->
<!DOCTYPE svg PUBLIC "-//W3C//DTD SVG 1.1//EN" "http://www.w3.org/Graphics/SVG/1.1/DTD/svg11.dtd" [
	<!ENTITY ns_flows "http://ns.adobe.com/Flows/1.0/">
]>
<svg version="1.1"
	 xmlns="http://www.w3.org/2000/svg" xmlns:xlink="http://www.w3.org/1999/xlink" xmlns:a="http://ns.adobe.com/AdobeSVGViewerExtensions/3.0/"
	 x="0px" y="0px" width="113px" height="113px" viewBox="-16.002 0.003 113 113" enable-background="new -16.002 0.003 113 113"
	 xml:space="preserve">
<defs>
</defs>
<path fill-rule="evenodd" clip-rule="evenodd" fill="#5BB8E4" d="M41.495,113.44c3.199,0,6.188-4.301,8.073-6.897
	C61.637,89.958,82.99,58.306,82.99,41.765C82.99,18.697,64.415,0,41.495,0S0,18.697,0,41.765c0,16.541,21.351,48.193,33.419,64.778
	C35.311,109.14,38.312,113.44,41.495,113.44L41.495,113.44z M41.495,16.555c12.207,0,22.096,9.928,22.096,22.186
	c0,12.235-9.889,22.165-22.096,22.165c-12.209,0-22.099-9.929-22.099-22.165C19.396,38.74,19.756,16.555,41.495,16.555z"/>
</svg>
