<?xml version="1.0" encoding="utf-8"?>
<!-- Generator: Adobe Illustrator 18.0.0, SVG Export Plug-In . SVG Version: 6.00 Build 0)  -->
<!DOCTYPE svg PUBLIC "-//W3C//DTD SVG 1.1//EN" "http://www.w3.org/Graphics/SVG/1.1/DTD/svg11.dtd">
<svg version="1.1" id="Layer_1" xmlns="http://www.w3.org/2000/svg" xmlns:xlink="http://www.w3.org/1999/xlink" x="0px" y="0px"
	 viewBox="0 0 80 15" enable-background="new 0 0 80 15" xml:space="preserve">
<g>
	<g>
		<path fill-rule="evenodd" clip-rule="evenodd" fill="#CFCFCF" d="M10.1,5.3L8,1.5L5.9,5.3L1.6,6.1l3,3.1L4,13.5L8,11.7l3.9,1.8
			l-0.5-4.3l3-3.1L10.1,5.3z M26.1,5.3L24,1.5l-2.1,3.8l-4.3,0.8l3,3.1l-0.5,4.3l3.9-1.8l3.9,1.8l-0.5-4.3l3-3.1L26.1,5.3z
			 M42.8,5.3l-2.1-3.8l-2.1,3.8l-4.3,0.8l3,3.1l-0.5,4.3l3.9-1.8l3.9,1.8l-0.5-4.3l3-3.1L42.8,5.3z M58.8,5.3l-2.1-3.8l-2.1,3.8
			l-4.3,0.8l3,3.1l-0.5,4.3l3.9-1.8l3.9,1.8l-0.5-4.3l3-3.1L58.8,5.3z M78.6,6.1l-4.3-0.8l-2.1-3.8l-2.1,3.8l-4.3,0.8l3,3.1
			l-0.5,4.3l3.9-1.8l3.9,1.8l-0.5-4.3L78.6,6.1z"/>
	</g>
</g>
</svg>
