<?xml version="1.0" encoding="utf-8"?>
<!-- Generator: Adobe Illustrator 18.0.0, SVG Export Plug-In . SVG Version: 6.00 Build 0)  -->
<!DOCTYPE svg PUBLIC "-//W3C//DTD SVG 1.1//EN" "http://www.w3.org/Graphics/SVG/1.1/DTD/svg11.dtd">
<svg version="1.1" id="圖層_1" xmlns="http://www.w3.org/2000/svg" xmlns:xlink="http://www.w3.org/1999/xlink" x="0px" y="0px"
	 viewBox="0 0 120 120" enable-background="new 0 0 120 120" xml:space="preserve">
<g>
	<path fill="#FFFFFF" d="M81.8,59c-3.5-0.7-1.8-2.5-1.8-2.5s3.4-5.7-0.7-9.7c-5-5.1-17.5,0.6-17.5,0.6c-4.7,1.4-3.5-0.6-2.8-4.3
		c0-4.3-1.4-11.5-14-7.2S21.7,55.2,21.7,55.2c-7.6,10-6.6,17.7-6.6,17.7C17,90,35.1,94.7,49.2,95.8c14.9,1.2,34.9-5.1,41-18
		C96.3,64.9,85.3,59.7,81.8,59z M50.4,91c-14.8,0.7-26.6-6.7-26.6-16.5S35.6,56.8,50.4,56s26.7,5.4,26.7,15.2
		C77,81.1,65.1,90.3,50.4,91z"/>
	<path fill="#FFFFFF" d="M47.4,62.5c-14.9,1.7-13.1,15.7-13.1,15.7s-0.2,4.4,4,6.7c8.6,4.7,17.6,1.9,22.1-4
		C65,74.9,62.3,60.8,47.4,62.5z M43.7,82.1c-2.8,0.4-5-1.3-5-3.6c0-2.3,2-4.7,4.8-5c3.2-0.3,5.2,1.5,5.2,3.9
		C48.7,79.5,46.4,81.7,43.7,82.1z M52.4,74.6c-0.9,0.7-2.1,0.6-2.6-0.3c-0.5-0.8-0.4-2.2,0.6-2.8c1.1-0.8,2.3-0.5,2.7,0.3
		C53.7,72.6,53.3,73.9,52.4,74.6z"/>
	<path fill="#FFFFFF" d="M89,53.1c1.2,0,2.3-0.9,2.3-2.1c0-0.1,0-0.2,0-0.3C93.1,34.4,78,37.2,78,37.2c-1.4,0-2.4,1.1-2.4,2.4
		S76.7,42,78,42c10.9-2.4,8.5,8.5,8.5,8.5C86.6,52,87.6,53.1,89,53.1z"/>
	<path fill="#FFFFFF" d="M87.2,24.6C82,23.4,76.6,24.4,75,24.7c-0.1,0-0.3,0.1-0.4,0.2c-0.1,0-0.1,0.1-0.1,0.1
		c-1.5,0.5-2.6,1.8-2.6,3.4c0,2,1.5,3.5,3.5,3.5c0,0,1.9-0.3,3.2-0.7c1.3-0.5,12.2-0.4,17.6,8.6c3,6.6,1.3,11,1.1,11.7
		c0,0-0.7,1.7-0.7,3.4c0,2,1.5,3.2,3.5,3.2c1.6,0,3-0.2,3.4-3l0,0C109.4,35.9,96.6,26.8,87.2,24.6z"/>
</g>
<rect fill="none" width="120" height="120"/>
</svg>
